# Blender v2.82 (sub 7) OBJ File: 'barrel_scene.blend'
# www.blender.org
mtllib barrel.mtl
o Cylinder
v -1.432047 0.588416 -5.300337
v -1.432047 3.812778 -5.029004
v -0.708976 0.588416 -5.065397
v -0.868462 3.812778 -4.845884
v -0.262094 0.588416 -4.450317
v -0.520147 3.812778 -4.366470
v -0.262094 0.588416 -3.690035
v -0.520147 3.812778 -3.773882
v -0.708977 0.588416 -3.074955
v -0.868462 3.812778 -3.294468
v -1.432047 0.588416 -2.840015
v -1.432047 3.812778 -3.111348
v -2.155118 0.588416 -3.074955
v -1.995632 3.812778 -3.294468
v -2.601999 0.588416 -3.690035
v -2.343946 3.812778 -3.773882
v -2.601999 0.588416 -4.450317
v -2.343946 3.812778 -4.366470
v -2.155117 0.588416 -5.065398
v -1.995631 3.812778 -4.845884
v -1.432047 1.865523 -5.437778
v -1.432047 1.340802 -5.437778
v -1.432047 3.060392 -5.437778
v -1.432047 2.535671 -5.437778
v -0.628191 2.535671 -5.176589
v -0.628191 3.060392 -5.176589
v -0.628191 1.340802 -5.176589
v -0.628191 1.865523 -5.176589
v -0.131380 2.535671 -4.492788
v -0.131380 3.060392 -4.492788
v -0.131380 1.340802 -4.492788
v -0.131380 1.865523 -4.492788
v -0.131380 2.535671 -3.647564
v -0.131380 3.060392 -3.647564
v -0.131380 1.340802 -3.647564
v -0.131380 1.865523 -3.647564
v -0.628191 2.535671 -2.963763
v -0.628191 3.060392 -2.963763
v -0.628191 1.340802 -2.963763
v -0.628191 1.865523 -2.963763
v -1.432047 2.535671 -2.702574
v -1.432047 3.060392 -2.702574
v -1.432047 1.340802 -2.702574
v -1.432047 1.865523 -2.702574
v -2.235904 2.535671 -2.963763
v -2.235904 3.060392 -2.963763
v -2.235904 1.340802 -2.963763
v -2.235904 1.865523 -2.963763
v -2.732714 2.535671 -3.647564
v -2.732714 3.060392 -3.647564
v -2.732714 1.340802 -3.647564
v -2.732714 1.865523 -3.647564
v -2.732714 2.535671 -4.492789
v -2.732714 3.060392 -4.492789
v -2.732714 1.340802 -4.492789
v -2.732714 1.865523 -4.492789
v -2.235903 2.535671 -5.176590
v -2.235903 3.060392 -5.176590
v -2.235903 1.340802 -5.176590
v -2.235903 1.865523 -5.176590
v -0.708976 3.812778 -5.065397
v -1.432047 3.812778 -5.300337
v -0.262094 3.812778 -4.450317
v -0.262094 3.812778 -3.690035
v -0.708977 3.812778 -3.074955
v -1.432047 3.812778 -2.840015
v -2.155118 3.812778 -3.074955
v -2.601999 3.812778 -3.690035
v -2.601999 3.812778 -4.450317
v -2.155117 3.812778 -5.065398
v -1.432047 3.612339 -5.029004
v -0.868462 3.612339 -4.845884
v -0.520147 3.612339 -4.366470
v -0.520147 3.612339 -3.773882
v -0.868462 3.612339 -3.294468
v -1.432047 3.612339 -3.111348
v -1.995632 3.612339 -3.294468
v -2.343946 3.612339 -3.773882
v -2.343946 3.612339 -4.366470
v -1.995631 3.612339 -4.845884
vt 0.900000 1.000000
vt 0.800000 0.869929
vt 0.900000 0.869929
vt 0.900000 0.796738
vt 0.800000 0.703262
vt 0.900000 0.703262
vt 0.800000 0.796738
vt 0.700000 0.703262
vt 0.700000 0.796738
vt 0.600000 0.703262
vt 0.600000 0.796738
vt 0.500000 0.703262
vt 0.500000 0.796738
vt 0.400000 0.703262
vt 0.400000 0.796738
vt 0.300000 0.703262
vt 0.300000 0.796738
vt 0.200000 0.703262
vt 0.359953 0.401338
vt 0.427908 0.307806
vt 0.427908 0.307806
vt 0.200000 0.796738
vt 0.100000 0.703262
vt 1.000000 1.000000
vt 1.000000 0.869929
vt 0.978254 0.175836
vt 0.750000 0.010000
vt 0.521746 0.175836
vt 1.000000 0.796738
vt 1.000000 0.703262
vt 0.100000 1.000000
vt -0.000000 0.869929
vt 0.100000 0.869929
vt 0.200000 0.630071
vt 0.100000 0.500000
vt 0.200000 0.500000
vt 0.200000 1.000000
vt 0.200000 0.869929
vt 0.300000 0.630071
vt 0.300000 0.500000
vt 0.300000 1.000000
vt 0.300000 0.869929
vt 0.400000 0.630071
vt 0.400000 0.500000
vt 0.400000 1.000000
vt 0.400000 0.869929
vt 0.500000 0.630071
vt 0.500000 0.500000
vt 0.500000 0.869929
vt 0.600000 0.630071
vt 0.600000 0.500000
vt 0.600000 1.000000
vt 0.600000 0.869929
vt 0.700000 0.630071
vt 0.700000 0.500000
vt 0.700000 0.869929
vt 0.800000 0.630071
vt 0.800000 0.500000
vt 0.800000 1.000000
vt 0.900000 0.500000
vt 0.100000 0.630071
vt -0.000000 0.500000
vt 0.100000 0.796738
vt -0.000000 0.703262
vt 1.000000 0.630071
vt 1.000000 0.500000
vt 0.250000 0.490000
vt 0.250000 0.437064
vt 0.391068 0.444164
vt 0.478254 0.175836
vt 0.478254 0.324164
vt 0.427908 0.192194
vt 0.391068 0.055836
vt 0.359953 0.098662
vt 0.250000 0.010000
vt 0.140047 0.098662
vt 0.250000 0.062936
vt 0.072092 0.192194
vt 0.108932 0.055836
vt 0.072092 0.307806
vt 0.021746 0.175836
vt 0.108932 0.444164
vt 0.021746 0.324164
vt 0.140047 0.401338
vt 0.140047 0.098662
vt 0.359953 0.098662
vt 0.140047 0.401338
vt 0.427908 0.192194
vt 0.250000 0.437064
vt 0.072092 0.192194
vt 0.359953 0.401338
vt 0.072092 0.307806
vt 0.250000 0.062936
vt 0.608932 0.444164
vt 0.750000 0.490000
vt 0.891068 0.444164
vt 0.978254 0.324164
vt 0.891068 0.055836
vt 0.608932 0.055836
vt 0.521746 0.324164
vt -0.000000 1.000000
vt 0.500000 1.000000
vt 0.700000 1.000000
vt 0.900000 0.630071
vt -0.000000 0.630071
vt -0.000000 0.796738
vn 0.7971 0.1712 -0.5791
vn 0.8090 0.0000 -0.5878
vn 1.0000 0.0000 0.0000
vn 0.8090 0.0000 0.5878
vn 0.3090 0.0000 0.9511
vn -0.3090 0.0000 0.9511
vn -0.8090 0.0000 0.5878
vn -1.0000 0.0000 0.0000
vn -0.8090 0.0000 -0.5878
vn 0.3045 0.1712 -0.9370
vn 0.0000 -1.0000 0.0000
vn 0.3090 0.0000 -0.9511
vn -0.3045 0.1712 -0.9370
vn -0.7971 -0.1712 -0.5791
vn -0.7971 0.1712 -0.5791
vn -0.9852 -0.1712 0.0000
vn -0.9852 0.1712 0.0000
vn -0.7971 -0.1712 0.5791
vn -0.7971 0.1712 0.5791
vn -0.3045 -0.1712 0.9370
vn -0.3045 0.1712 0.9370
vn 0.3045 -0.1712 0.9370
vn 0.3045 0.1712 0.9370
vn 0.7971 -0.1712 0.5791
vn 0.7971 0.1712 0.5791
vn 0.9852 -0.1712 0.0000
vn 0.9852 0.1712 0.0000
vn 0.7971 -0.1712 -0.5791
vn -0.3045 -0.1712 -0.9370
vn -0.3090 0.0000 -0.9511
vn 0.3045 -0.1712 -0.9370
vn 0.0000 1.0000 0.0000
usemtl Material.002
s off
f 61/1/1 30/2/1 26/3/1
f 25/4/2 32/5/2 28/6/2
f 29/7/3 36/8/3 32/5/3
f 33/9/4 40/10/4 36/8/4
f 37/11/5 44/12/5 40/10/5
f 41/13/6 48/14/6 44/12/6
f 45/15/7 52/16/7 48/14/7
f 49/17/8 56/18/8 52/16/8
f 4/19/7 73/20/7 6/21/7
f 53/22/9 60/23/9 56/18/9
f 62/24/10 26/3/10 23/25/10
f 7/26/11 11/27/11 15/28/11
f 24/29/12 28/6/12 21/30/12
f 70/31/13 23/32/13 58/33/13
f 55/34/14 19/35/14 17/36/14
f 69/37/15 58/33/15 54/38/15
f 51/39/16 17/36/16 15/40/16
f 68/41/17 54/38/17 50/42/17
f 47/43/18 15/40/18 13/44/18
f 67/45/19 50/42/19 46/46/19
f 43/47/20 13/44/20 11/48/20
f 42/49/21 67/45/21 46/46/21
f 39/50/22 11/48/22 9/51/22
f 65/52/23 42/49/23 38/53/23
f 35/54/24 9/51/24 7/55/24
f 34/56/25 65/52/25 38/53/25
f 31/57/26 7/55/26 5/58/26
f 63/59/27 34/56/27 30/2/27
f 3/60/28 31/57/28 5/58/28
f 59/61/29 1/62/29 19/35/29
f 57/63/30 21/64/30 60/23/30
f 22/65/31 3/60/31 1/66/31
f 4/19/32 62/67/32 2/68/32
f 6/21/32 61/69/32 4/19/32
f 6/21/32 64/70/32 63/71/32
f 8/72/32 65/73/32 64/70/32
f 10/74/32 66/75/32 65/73/32
f 14/76/32 66/75/32 12/77/32
f 16/78/32 67/79/32 14/76/32
f 18/80/32 68/81/32 16/78/32
f 18/80/32 70/82/32 69/83/32
f 20/84/32 62/67/32 70/82/32
f 77/85/32 75/86/32 73/20/32
f 18/80/4 80/87/4 20/84/4
f 12/77/12 77/85/12 14/76/12
f 6/21/8 74/88/8 8/72/8
f 20/84/5 71/89/5 2/68/5
f 14/76/2 78/90/2 16/78/2
f 8/72/9 75/86/9 10/74/9
f 2/68/6 72/91/6 4/19/6
f 16/78/3 79/92/3 18/80/3
f 10/74/30 76/93/30 12/77/30
f 61/1/1 63/59/1 30/2/1
f 25/4/2 29/7/2 32/5/2
f 29/7/3 33/9/3 36/8/3
f 33/9/4 37/11/4 40/10/4
f 37/11/5 41/13/5 44/12/5
f 41/13/6 45/15/6 48/14/6
f 45/15/7 49/17/7 52/16/7
f 49/17/8 53/22/8 56/18/8
f 4/19/7 72/91/7 73/20/7
f 53/22/9 57/63/9 60/23/9
f 62/24/10 61/1/10 26/3/10
f 19/94/11 1/95/11 3/96/11
f 3/96/11 5/97/11 7/26/11
f 7/26/11 9/98/11 11/27/11
f 11/27/11 13/99/11 15/28/11
f 15/28/11 17/100/11 19/94/11
f 19/94/11 3/96/11 15/28/11
f 3/96/11 7/26/11 15/28/11
f 24/29/12 25/4/12 28/6/12
f 70/31/13 62/101/13 23/32/13
f 55/34/14 59/61/14 19/35/14
f 69/37/15 70/31/15 58/33/15
f 51/39/16 55/34/16 17/36/16
f 68/41/17 69/37/17 54/38/17
f 47/43/18 51/39/18 15/40/18
f 67/45/19 68/41/19 50/42/19
f 43/47/20 47/43/20 13/44/20
f 42/49/21 66/102/21 67/45/21
f 39/50/22 43/47/22 11/48/22
f 65/52/23 66/102/23 42/49/23
f 35/54/24 39/50/24 9/51/24
f 34/56/25 64/103/25 65/52/25
f 31/57/26 35/54/26 7/55/26
f 63/59/27 64/103/27 34/56/27
f 3/60/28 27/104/28 31/57/28
f 59/61/29 22/105/29 1/62/29
f 57/63/30 24/106/30 21/64/30
f 22/65/31 27/104/31 3/60/31
f 4/19/32 61/69/32 62/67/32
f 6/21/32 63/71/32 61/69/32
f 6/21/32 8/72/32 64/70/32
f 8/72/32 10/74/32 65/73/32
f 10/74/32 12/77/32 66/75/32
f 14/76/32 67/79/32 66/75/32
f 16/78/32 68/81/32 67/79/32
f 18/80/32 69/83/32 68/81/32
f 18/80/32 20/84/32 70/82/32
f 20/84/32 2/68/32 62/67/32
f 73/20/32 72/91/32 71/89/32
f 71/89/32 80/87/32 79/92/32
f 79/92/32 78/90/32 77/85/32
f 77/85/32 76/93/32 75/86/32
f 75/86/32 74/88/32 73/20/32
f 73/20/32 71/89/32 79/92/32
f 79/92/32 77/85/32 73/20/32
f 18/80/4 79/92/4 80/87/4
f 12/77/12 76/93/12 77/85/12
f 6/21/8 73/20/8 74/88/8
f 20/84/5 80/87/5 71/89/5
f 14/76/2 77/85/2 78/90/2
f 8/72/9 74/88/9 75/86/9
f 2/68/6 71/89/6 72/91/6
f 16/78/3 78/90/3 79/92/3
f 10/74/30 75/86/30 76/93/30
