# Blender v2.82 (sub 7) OBJ File: 'barrel_scene.blend'
# www.blender.org
mtllib floor.mtl
o Cube.001_Cube.002
v -9.999999 -0.537972 9.999999
v -9.999999 -0.537972 -9.999999
v -9.999999 0.537972 9.999999
v 9.999999 -0.537972 9.999999
v 9.999999 0.537972 9.999999
v 9.999999 -0.537972 -9.999999
v 9.999999 0.537972 -9.999999
v -9.999999 0.537972 -9.999999
vt -0.315265 0.500000
vt -1.945796 2.130531
vt -1.945796 0.500000
vt 1.315265 -2.603023
vt -0.315265 -1.130531
vt -0.315265 -2.603023
vt 1.315265 2.130531
vt 1.315265 3.761061
vt -0.315265 3.761061
vt -0.315265 2.130531
vt 1.315265 -1.130531
vt 1.315265 0.500000
vt 2.945796 0.500000
vt 2.945796 2.130531
vn 0.0000 -1.0000 0.0000
vn -1.0000 0.0000 0.0000
vn 0.0000 0.0000 1.0000
vn 0.0000 0.0000 -1.0000
vn 1.0000 0.0000 0.0000
vn 0.0000 1.0000 0.0000
usemtl Material.001
s off
f 6/1/1 1/2/1 2/3/1
f 3/4/2 2/5/2 1/6/2
f 5/7/3 3/8/3 1/9/3
f 6/1/1 4/10/1 1/2/1
f 5/7/3 1/9/3 4/10/3
f 8/11/4 6/1/4 2/5/4
f 8/11/4 7/12/4 6/1/4
f 7/12/5 4/10/5 6/1/5
f 8/13/6 3/14/6 5/7/6
f 3/4/2 8/11/2 2/5/2
f 8/13/6 5/7/6 7/12/6
f 7/12/5 5/7/5 4/10/5
