# Blender v2.83.0 OBJ File: 'lamp.blend'
# www.blender.org
mtllib lamp_top.mtl
o Cylinder
v 0.000000 5.335525 2.508670
v 0.000000 5.907252 2.508670
v 0.012986 5.335525 2.509949
v 0.012986 5.907252 2.509949
v 0.025472 5.335525 2.513737
v 0.025472 5.907252 2.513737
v 0.036980 5.335525 2.519888
v 0.036980 5.907252 2.519888
v 0.047067 5.335525 2.528166
v 0.047067 5.907252 2.528166
v 0.055345 5.335525 2.538253
v 0.055345 5.907252 2.538253
v 0.061496 5.335525 2.549760
v 0.061496 5.907252 2.549760
v 0.065284 5.335525 2.562247
v 0.065284 5.907252 2.562247
v 0.066562 5.335525 2.575233
v 0.066562 5.907252 2.575233
v 0.065284 5.335525 2.588218
v 0.065284 5.907252 2.588218
v 0.061496 5.335525 2.600705
v 0.061496 5.907252 2.600705
v 0.055345 5.335525 2.612213
v 0.055345 5.907252 2.612213
v 0.047067 5.335525 2.622299
v 0.047067 5.907252 2.622299
v 0.036980 5.335525 2.630577
v 0.036980 5.907252 2.630577
v 0.025472 5.335525 2.636728
v 0.025472 5.907252 2.636728
v 0.012986 5.335525 2.640516
v 0.012986 5.907252 2.640516
v 0.000000 5.335525 2.641795
v 0.000000 5.907252 2.641795
v -0.012986 5.335525 2.640516
v -0.012986 5.907252 2.640516
v -0.025472 5.335525 2.636728
v -0.025472 5.907252 2.636728
v -0.036980 5.335525 2.630577
v -0.036980 5.907252 2.630577
v -0.047067 5.335525 2.622299
v -0.047067 5.907252 2.622299
v -0.055345 5.335525 2.612213
v -0.055345 5.907252 2.612213
v -0.061496 5.335525 2.600705
v -0.061496 5.907252 2.600705
v -0.065283 5.335525 2.588218
v -0.065283 5.907252 2.588218
v -0.066562 5.335525 2.575233
v -0.066562 5.907252 2.575233
v -0.065283 5.335525 2.562247
v -0.065283 5.907252 2.562247
v -0.061496 5.335525 2.549760
v -0.061496 5.907252 2.549760
v -0.055345 5.335525 2.538252
v -0.055345 5.907252 2.538252
v -0.047067 5.335525 2.528166
v -0.047067 5.907252 2.528166
v -0.036980 5.335525 2.519888
v -0.036980 5.907252 2.519888
v -0.025472 5.335525 2.513737
v -0.025472 5.907252 2.513737
v -0.012986 5.335525 2.509949
v -0.012986 5.907252 2.509949
v 0.000000 5.272637 2.475382
v 0.019480 5.272637 2.477300
v 0.038211 5.272637 2.482982
v 0.055474 5.272637 2.492209
v 0.070606 5.272637 2.504627
v 0.083023 5.272637 2.519758
v 0.092251 5.272637 2.537021
v 0.097933 5.272637 2.555753
v 0.099851 5.272637 2.575233
v 0.097933 5.272637 2.594713
v 0.092251 5.272637 2.613444
v 0.083023 5.272637 2.630707
v 0.070606 5.272637 2.645838
v 0.055474 5.272637 2.658256
v 0.038211 5.272637 2.667483
v 0.019480 5.272637 2.673165
v 0.000000 5.272637 2.675084
v -0.019480 5.272637 2.673165
v -0.038211 5.272637 2.667483
v -0.055474 5.272637 2.658256
v -0.070605 5.272637 2.645838
v -0.083023 5.272637 2.630707
v -0.092250 5.272637 2.613444
v -0.097933 5.272637 2.594713
v -0.099851 5.272637 2.575233
v -0.097933 5.272637 2.555753
v -0.092250 5.272637 2.537021
v -0.083023 5.272637 2.519758
v -0.070605 5.272637 2.504627
v -0.055474 5.272637 2.492209
v -0.038211 5.272637 2.482982
v -0.019480 5.272637 2.477300
v 0.000000 5.287117 2.359574
v 0.042073 5.287117 2.363718
v 0.082529 5.287117 2.375990
v 0.119814 5.287117 2.395919
v 0.152494 5.287117 2.422739
v 0.179314 5.287117 2.455419
v 0.199243 5.287117 2.492704
v 0.211515 5.287117 2.533160
v 0.215659 5.287117 2.575233
v 0.211515 5.287117 2.617306
v 0.199243 5.287117 2.657762
v 0.179314 5.287117 2.695046
v 0.152494 5.287117 2.727727
v 0.119814 5.287117 2.754546
v 0.082529 5.287117 2.774476
v 0.042073 5.287117 2.786748
v -0.000000 5.287117 2.790892
v -0.042073 5.287117 2.786748
v -0.082529 5.287117 2.774476
v -0.119814 5.287117 2.754546
v -0.152494 5.287117 2.727727
v -0.179314 5.287117 2.695046
v -0.199243 5.287117 2.657762
v -0.211515 5.287117 2.617306
v -0.215659 5.287117 2.575233
v -0.211515 5.287117 2.533160
v -0.199243 5.287117 2.492704
v -0.179314 5.287117 2.455419
v -0.152494 5.287117 2.422739
v -0.119813 5.287117 2.395919
v -0.082529 5.287117 2.375990
v -0.042073 5.287117 2.363718
v 0.000000 5.018125 2.359574
v 0.042073 5.018125 2.363718
v 0.082529 5.018125 2.375990
v 0.119814 5.018125 2.395919
v 0.152494 5.018125 2.422739
v 0.179314 5.018125 2.455419
v 0.199243 5.018125 2.492704
v 0.211515 5.018125 2.533160
v 0.215659 5.018125 2.575233
v 0.211515 5.018125 2.617306
v 0.199243 5.018125 2.657762
v 0.179314 5.018125 2.695046
v 0.152494 5.018125 2.727727
v 0.119814 5.018125 2.754546
v 0.082529 5.018125 2.774476
v 0.042073 5.018125 2.786748
v 0.000000 5.018125 2.790892
v -0.042073 5.018125 2.786748
v -0.082529 5.018125 2.774476
v -0.119814 5.018125 2.754546
v -0.152494 5.018125 2.727727
v -0.179314 5.018125 2.695046
v -0.199243 5.018125 2.657762
v -0.211515 5.018125 2.617306
v -0.215659 5.018125 2.575233
v -0.211515 5.018125 2.533160
v -0.199243 5.018125 2.492704
v -0.179313 5.018125 2.455419
v -0.152493 5.018125 2.422739
v -0.119813 5.018125 2.395919
v -0.082529 5.018125 2.375990
v -0.042072 5.018125 2.363718
vt 5.500000 5.455000
vt 5.187500 0.455000
vt 5.500000 0.455000
vt 5.187500 5.455000
vt 4.875000 0.455000
vt 4.875000 5.455000
vt 4.562500 0.455000
vt 4.562500 5.455000
vt 4.250000 0.455000
vt 4.250000 5.455000
vt 3.937500 0.455000
vt 3.937500 5.455000
vt 3.625000 0.455000
vt 3.625000 5.455000
vt 3.312500 0.455000
vt 3.312500 5.455000
vt 3.000000 0.455000
vt 3.000000 5.455000
vt 2.687500 0.455000
vt 2.687500 5.455000
vt 2.375000 0.455000
vt 2.375000 5.455000
vt 2.062500 0.455000
vt 2.062500 5.455000
vt 1.750000 0.455000
vt 1.750000 5.455000
vt 1.437500 0.455000
vt 1.437500 5.455000
vt 1.125000 0.455000
vt 1.125000 5.455000
vt 0.812500 0.455000
vt 0.812500 5.455000
vt 0.500000 0.455000
vt 0.500000 5.455000
vt 0.187500 0.455000
vt 0.187500 5.455000
vt -0.125000 0.455000
vt -0.125000 5.455000
vt -0.437500 0.455000
vt -0.437500 5.455000
vt -0.750000 0.455000
vt -0.750000 5.455000
vt -1.062500 0.455000
vt -1.062500 5.455000
vt -1.375000 0.455000
vt -1.375000 5.455000
vt -1.687500 0.455000
vt -1.687500 5.455000
vt -2.000000 0.455000
vt -2.000000 5.455000
vt -2.312500 0.455000
vt -2.312500 5.455000
vt -2.625000 0.455000
vt -2.625000 5.455000
vt -2.937500 0.455000
vt -2.937500 5.455000
vt -3.250000 0.455000
vt -3.250000 5.455000
vt -3.562500 0.455000
vt -3.562500 5.455000
vt -3.875000 0.455000
vt -4.217310 -1.126557
vt -2.918441 -4.262310
vt 0.217311 -2.963440
vt -3.875000 5.455000
vt -4.187500 0.455000
vt -4.187500 5.455000
vt -4.500000 0.455000
vt 4.250000 0.455000
vt 2.062500 0.455000
vt 2.375000 0.455000
vt 2.375000 0.455000
vt 1.437500 0.455000
vt -1.687500 0.455000
vt -1.375000 0.455000
vt 5.187500 0.455000
vt 5.500000 0.455000
vt -4.187500 0.455000
vt 2.687500 0.455000
vt -0.437500 0.455000
vt -0.125000 0.455000
vt -3.250000 0.455000
vt -2.937500 0.455000
vt 3.937500 0.455000
vt 0.812500 0.455000
vt 1.125000 0.455000
vt -2.000000 0.455000
vt -3.562500 0.455000
vt 3.625000 0.455000
vt -2.312500 0.455000
vt 4.875000 0.455000
vt -1.062500 0.455000
vt -0.750000 0.455000
vt -3.875000 0.455000
vt 3.000000 0.455000
vt 3.312500 0.455000
vt 0.187500 0.455000
vt 0.500000 0.455000
vt -2.625000 0.455000
vt 4.562500 0.455000
vt 1.750000 0.455000
vt 1.437500 0.455000
vt 1.125000 0.455000
vt 1.437500 0.455000
vt -2.312500 0.455000
vt -2.000000 0.455000
vt 2.062500 0.455000
vt -2.625000 0.455000
vt 1.750000 0.455000
vt 5.187500 0.455000
vt 5.500000 0.455000
vt -3.250000 0.455000
vt -2.937500 0.455000
vt 1.125000 0.455000
vt -3.562500 0.455000
vt 0.500000 0.455000
vt 0.812500 0.455000
vt 4.562500 0.455000
vt 4.875000 0.455000
vt -3.875000 0.455000
vt 0.187500 0.455000
vt 3.937500 0.455000
vt 4.250000 0.455000
vt -4.500000 0.455000
vt -4.187500 0.455000
vt -0.437500 0.455000
vt -0.125000 0.455000
vt 3.625000 0.455000
vt -1.062500 0.455000
vt -0.750000 0.455000
vt 3.000000 0.455000
vt 3.312500 0.455000
vt -1.375000 0.455000
vt 2.687500 0.455000
vt -1.687500 0.455000
vt 1.666630 -4.040526
vt 0.646115 -2.513215
vt 2.531787 0.308885
vt 5.500000 0.455000
vt -2.937500 0.455000
vt 0.812500 0.455000
vt 5.187500 0.455000
vt -3.250000 0.455000
vt 0.500000 0.455000
vt 4.875000 0.455000
vt -3.562500 0.455000
vt 0.187500 0.455000
vt 4.562500 0.455000
vt -3.875000 0.455000
vt -0.125000 0.455000
vt 4.250000 0.455000
vt -4.500000 0.455000
vt -4.187500 0.455000
vt -0.437500 0.455000
vt 3.937500 0.455000
vt -0.750000 0.455000
vt 3.625000 0.455000
vt -1.062500 0.455000
vt 3.312500 0.455000
vt -1.375000 0.455000
vt 2.687500 0.455000
vt 3.000000 0.455000
vt -1.687500 0.455000
vt 2.375000 0.455000
vt -2.000000 0.455000
vt 2.062500 0.455000
vt 1.750000 0.455000
vt -2.312500 0.455000
vt -2.625000 0.455000
vt -1.081560 0.172311
vt -1.531783 0.308885
vt -2.000000 0.355000
vt -2.468213 0.308885
vt -2.918437 0.172312
vt -3.333366 -0.049471
vt -3.697054 -0.347942
vt -3.995525 -0.711629
vt -4.353884 -1.576781
vt -4.400000 -2.044998
vt -4.353885 -2.513215
vt -4.217311 -2.963439
vt -3.995528 -3.378367
vt -3.697058 -3.742055
vt -3.333370 -4.040526
vt -2.468218 -4.398884
vt -1.081560 -4.262311
vt -2.000000 -4.445000
vt -1.531784 -4.398884
vt -0.666632 -4.040527
vt -0.302944 -3.742056
vt -0.004473 -3.378368
vt 0.353885 -2.513216
vt 0.400000 -2.045000
vt 0.353885 -1.576783
vt 0.217311 -1.126560
vt -0.004473 -0.711631
vt -0.302944 -0.347944
vt -0.666632 -0.049473
vt -4.500000 5.455000
vt 3.000000 0.355000
vt 3.468216 0.308885
vt 3.918440 0.172311
vt 4.333368 -0.049473
vt 4.697056 -0.347944
vt 4.995527 -0.711631
vt 5.217311 -1.126560
vt 5.353885 -1.576783
vt 5.400000 -2.045000
vt 5.353885 -2.513216
vt 5.217311 -2.963440
vt 4.995527 -3.378368
vt 4.697056 -3.742056
vt 4.333368 -4.040527
vt 3.918440 -4.262311
vt 3.468216 -4.398884
vt 3.000000 -4.445000
vt 2.531782 -4.398884
vt 2.081559 -4.262310
vt 1.302943 -3.742055
vt 1.004472 -3.378367
vt 0.782688 -2.963439
vt 0.600000 -2.044998
vt 0.646116 -1.576781
vt 0.782691 -1.126557
vt 1.004475 -0.711629
vt 1.302946 -0.347942
vt 1.666634 -0.049471
vt 2.081563 0.172312
vt -4.500000 0.455000
vn 0.0980 0.0000 -0.9952
vn 0.2903 0.0000 -0.9569
vn 0.4714 0.0000 -0.8819
vn 0.6344 0.0000 -0.7730
vn 0.7730 0.0000 -0.6344
vn 0.8819 0.0000 -0.4714
vn 0.9569 0.0000 -0.2903
vn 0.9952 0.0000 -0.0980
vn 0.9952 0.0000 0.0980
vn 0.9569 0.0000 0.2903
vn 0.8819 0.0000 0.4714
vn 0.7730 0.0000 0.6344
vn 0.6344 0.0000 0.7730
vn 0.4714 0.0000 0.8819
vn 0.2903 0.0000 0.9569
vn 0.0980 0.0000 0.9952
vn -0.0980 0.0000 0.9952
vn -0.2903 0.0000 0.9569
vn -0.4714 0.0000 0.8819
vn -0.6344 0.0000 0.7730
vn -0.7730 0.0000 0.6344
vn -0.8819 0.0000 0.4714
vn -0.9569 0.0000 0.2903
vn -0.9952 0.0000 0.0980
vn -0.9952 0.0000 -0.0980
vn -0.9569 0.0000 -0.2903
vn -0.8819 0.0000 -0.4714
vn -0.7730 0.0000 -0.6344
vn -0.6344 0.0000 -0.7730
vn -0.4714 0.0000 -0.8819
vn 0.0000 1.0000 0.0000
vn -0.2903 0.0000 -0.9570
vn -0.0980 0.0000 -0.9952
vn 0.6839 0.4661 -0.5613
vn -0.1099 0.9922 -0.0587
vn 0.4170 0.4661 0.7803
vn -0.8467 0.4661 0.2568
vn 0.0867 0.4661 -0.8805
vn -0.0867 0.4661 -0.8805
vn 0.8466 0.4661 0.2568
vn -0.4171 0.4661 0.7803
vn -0.6839 0.4661 -0.5613
vn 0.7803 0.4661 -0.4171
vn 0.2568 0.4661 0.8466
vn -0.8805 0.4661 0.0867
vn 0.2568 0.4661 -0.8466
vn 0.7803 0.4661 0.4170
vn -0.5613 0.4661 0.6839
vn -0.5613 0.4661 -0.6839
vn 0.8467 0.4661 -0.2568
vn 0.0867 0.4661 0.8805
vn -0.8805 0.4661 -0.0867
vn 0.4171 0.4661 -0.7803
vn 0.6839 0.4661 0.5613
vn -0.6839 0.4661 0.5613
vn -0.4171 0.4661 -0.7803
vn 0.8805 0.4661 -0.0867
vn -0.0867 0.4661 0.8805
vn -0.8466 0.4661 -0.2568
vn 0.5613 0.4661 -0.6839
vn 0.5613 0.4661 0.6839
vn -0.7803 0.4661 0.4171
vn -0.2568 0.4661 -0.8467
vn 0.8805 0.4661 0.0867
vn -0.2568 0.4661 0.8466
vn -0.7803 0.4661 -0.4170
vn 0.1241 0.9922 0.0122
vn -0.0964 0.9922 -0.0791
vn 0.1193 0.9922 0.0362
vn -0.0791 0.9922 -0.0964
vn 0.1099 0.9922 0.0588
vn -0.0588 0.9922 -0.1099
vn -0.0122 0.9922 0.1241
vn 0.0964 0.9922 0.0791
vn -0.0362 0.9922 -0.1193
vn -0.0362 0.9922 0.1193
vn 0.0791 0.9922 0.0964
vn -0.0122 0.9922 -0.1241
vn -0.0588 0.9922 0.1100
vn 0.0588 0.9922 0.1099
vn 0.0122 0.9922 -0.1241
vn -0.0791 0.9922 0.0963
vn 0.0362 0.9922 0.1193
vn 0.0362 0.9922 -0.1193
vn -0.0964 0.9922 0.0791
vn 0.0122 0.9922 0.1241
vn 0.0588 0.9922 -0.1099
vn -0.1099 0.9922 0.0588
vn 0.0791 0.9922 -0.0964
vn -0.1193 0.9922 0.0362
vn 0.0964 0.9922 -0.0791
vn -0.1241 0.9922 0.0122
vn 0.1099 0.9922 -0.0588
vn -0.1241 0.9922 -0.0122
vn 0.1193 0.9922 -0.0362
vn -0.1193 0.9922 -0.0362
vn 0.1241 0.9922 -0.0122
vn 0.0000 -1.0000 0.0000
vn -0.2903 -0.0000 -0.9569
vn 0.2903 0.0000 -0.9570
vn 0.0000 1.0000 -0.0004
vn 0.0000 1.0000 0.0006
vn 0.0000 1.0000 -0.0003
vn 0.0000 1.0000 -0.0002
vn 0.0000 1.0000 0.0002
vn 0.0000 1.0000 -0.0001
vn -0.0981 0.0000 -0.9952
vn -0.1099 0.9922 -0.0588
vn 0.4171 0.4661 0.7803
vn -0.8466 0.4661 0.2568
vn 0.8467 0.4661 0.2568
vn 0.2568 0.4661 -0.8467
vn 0.7803 0.4661 0.4171
vn 0.8466 0.4661 -0.2568
vn -0.8467 0.4661 -0.2568
vn -0.2568 0.4661 -0.8466
vn -0.2568 0.4661 0.8467
vn -0.7803 0.4661 -0.4171
vn -0.0791 0.9922 -0.0963
vn -0.0588 0.9922 0.1099
vn -0.0791 0.9922 0.0964
vn 0.1241 0.9922 -0.0123
vn 0.0000 -1.0000 -0.0002
vn 0.0000 -1.0000 -0.0001
vn 0.0000 -1.0000 0.0001
usemtl Material
s off
f 2/1/1 3/2/1 1/3/1
f 4/4/2 5/5/2 3/2/2
f 6/6/3 7/7/3 5/5/3
f 8/8/4 9/9/4 7/7/4
f 10/10/5 11/11/5 9/9/5
f 12/12/6 13/13/6 11/11/6
f 14/14/7 15/15/7 13/13/7
f 16/16/8 17/17/8 15/15/8
f 18/18/9 19/19/9 17/17/9
f 20/20/10 21/21/10 19/19/10
f 22/22/11 23/23/11 21/21/11
f 24/24/12 25/25/12 23/23/12
f 26/26/13 27/27/13 25/25/13
f 28/28/14 29/29/14 27/27/14
f 30/30/15 31/31/15 29/29/15
f 32/32/16 33/33/16 31/31/16
f 34/34/17 35/35/17 33/33/17
f 36/36/18 37/37/18 35/35/18
f 38/38/19 39/39/19 37/37/19
f 40/40/20 41/41/20 39/39/20
f 42/42/21 43/43/21 41/41/21
f 44/44/22 45/45/22 43/43/22
f 46/46/23 47/47/23 45/45/23
f 48/48/24 49/49/24 47/47/24
f 50/50/25 51/51/25 49/49/25
f 52/52/26 53/53/26 51/51/26
f 54/54/27 55/55/27 53/53/27
f 56/56/28 57/57/28 55/55/28
f 58/58/29 59/59/29 57/57/29
f 60/60/30 61/61/30 59/59/30
f 54/62/31 38/63/31 22/64/31
f 62/65/32 63/66/32 61/61/32
f 64/67/33 1/68/33 63/66/33
f 11/11/34 69/69/34 9/9/34
f 76/70/35 107/71/35 75/72/35
f 29/29/36 78/73/36 27/27/36
f 45/45/37 88/74/37 87/75/37
f 1/3/38 66/76/38 65/77/38
f 1/68/39 96/78/39 63/66/39
f 21/21/40 74/79/40 19/19/40
f 37/37/41 84/80/41 83/81/41
f 55/55/42 93/82/42 92/83/42
f 13/13/43 70/84/43 11/11/43
f 29/29/44 80/85/44 79/86/44
f 47/47/45 89/87/45 88/74/45
f 5/5/46 66/76/46 3/2/46
f 23/23/47 75/72/47 21/21/47
f 41/41/48 84/80/48 39/39/48
f 57/57/49 94/88/49 93/82/49
f 15/15/50 71/89/50 13/13/50
f 33/33/51 80/85/51 31/31/51
f 49/49/52 90/90/52 89/87/52
f 7/7/53 67/91/53 5/5/53
f 25/25/54 76/70/54 23/23/54
f 41/41/55 86/92/55 85/93/55
f 59/59/56 95/94/56 94/88/56
f 15/15/57 73/95/57 72/96/57
f 33/33/58 82/97/58 81/98/58
f 51/51/59 91/99/59 90/90/59
f 9/9/60 68/100/60 7/7/60
f 25/25/61 78/73/61 77/101/61
f 43/43/62 87/75/62 86/92/62
f 63/66/63 95/94/63 61/61/63
f 19/19/64 73/95/64 17/17/64
f 37/37/65 82/97/65 35/35/65
f 55/55/66 91/99/66 53/53/66
f 110/102/14 143/103/14 142/104/14
f 89/87/67 122/105/67 121/106/67
f 77/101/68 108/107/68 76/70/68
f 90/90/69 123/108/69 122/105/69
f 77/101/70 110/102/70 109/109/70
f 92/83/71 123/108/71 91/99/71
f 79/86/72 110/102/72 78/73/72
f 65/77/73 98/110/73 97/111/73
f 92/83/74 125/112/74 124/113/74
f 80/85/75 111/114/75 79/86/75
f 67/91/76 98/110/76 66/76/76
f 93/82/77 126/115/77 125/112/77
f 80/85/78 113/116/78 112/117/78
f 67/91/79 100/118/79 99/119/79
f 94/88/80 127/120/80 126/115/80
f 82/97/81 113/116/81 81/98/81
f 69/69/82 100/118/82 68/100/82
f 96/78/83 127/120/83 95/94/83
f 83/81/84 114/121/84 82/97/84
f 69/69/85 102/122/85 101/123/85
f 65/124/86 128/125/86 96/78/86
f 83/81/87 116/126/87 115/127/87
f 71/89/88 102/122/88 70/84/88
f 85/93/89 116/126/89 84/80/89
f 72/96/90 103/128/90 71/89/90
f 85/93/91 118/129/91 117/130/91
f 72/96/92 105/131/92 104/132/92
f 86/92/93 119/133/93 118/129/93
f 74/79/94 105/131/94 73/95/94
f 88/74/95 119/133/95 87/75/95
f 74/79/96 107/71/96 106/134/96
f 88/74/97 121/106/97 120/135/97
f 148/136/98 152/137/98 160/138/98
f 98/110/1 129/139/1 97/111/1
f 125/112/28 156/140/28 124/113/28
f 111/114/15 144/141/15 143/103/15
f 99/119/2 130/142/2 98/110/2
f 126/115/29 157/143/29 125/112/29
f 112/117/16 145/144/16 144/141/16
f 100/118/3 131/145/3 99/119/3
f 127/120/30 158/146/30 126/115/30
f 113/116/17 146/147/17 145/144/17
f 101/123/4 132/148/4 100/118/4
f 128/125/99 159/149/99 127/120/99
f 114/121/18 147/150/18 146/147/18
f 102/122/5 133/151/5 101/123/5
f 97/152/33 160/153/33 128/125/33
f 115/127/19 148/154/19 147/150/19
f 103/128/6 134/155/6 102/122/6
f 116/126/20 149/156/20 148/154/20
f 104/132/7 135/157/7 103/128/7
f 117/130/21 150/158/21 149/156/21
f 105/131/8 136/159/8 104/132/8
f 118/129/22 151/160/22 150/158/22
f 105/131/9 138/161/9 137/162/9
f 119/133/23 152/163/23 151/160/23
f 106/134/10 139/164/10 138/161/10
f 120/135/24 153/165/24 152/163/24
f 107/71/11 140/166/11 139/164/11
f 122/105/25 153/165/25 121/106/25
f 108/107/12 141/167/12 140/166/12
f 123/108/26 154/168/26 122/105/26
f 109/109/13 142/104/13 141/167/13
f 124/113/27 155/169/27 123/108/27
f 2/1/1 4/4/1 3/2/1
f 4/4/100 6/6/100 5/5/100
f 6/6/3 8/8/3 7/7/3
f 8/8/4 10/10/4 9/9/4
f 10/10/5 12/12/5 11/11/5
f 12/12/6 14/14/6 13/13/6
f 14/14/7 16/16/7 15/15/7
f 16/16/8 18/18/8 17/17/8
f 18/18/9 20/20/9 19/19/9
f 20/20/10 22/22/10 21/21/10
f 22/22/11 24/24/11 23/23/11
f 24/24/12 26/26/12 25/25/12
f 26/26/13 28/28/13 27/27/13
f 28/28/14 30/30/14 29/29/14
f 30/30/15 32/32/15 31/31/15
f 32/32/16 34/34/16 33/33/16
f 34/34/17 36/36/17 35/35/17
f 36/36/18 38/38/18 37/37/18
f 38/38/19 40/40/19 39/39/19
f 40/40/20 42/42/20 41/41/20
f 42/42/21 44/44/21 43/43/21
f 44/44/22 46/46/22 45/45/22
f 46/46/23 48/48/23 47/47/23
f 48/48/24 50/50/24 49/49/24
f 50/50/25 52/52/25 51/51/25
f 52/52/26 54/54/26 53/53/26
f 54/54/27 56/56/27 55/55/27
f 56/56/28 58/58/28 57/57/28
f 58/58/29 60/60/29 59/59/29
f 60/60/30 62/65/30 61/61/30
f 6/170/101 4/171/101 2/172/101
f 2/172/102 64/173/102 6/170/102
f 64/173/103 62/174/103 6/170/103
f 62/174/104 60/175/104 54/62/104
f 60/175/31 58/176/31 54/62/31
f 58/176/31 56/177/31 54/62/31
f 54/62/31 52/178/31 50/179/31
f 50/179/31 48/180/31 46/181/31
f 46/181/31 44/182/31 42/183/31
f 42/183/31 40/184/31 46/181/31
f 40/184/105 38/63/105 46/181/105
f 38/63/105 36/185/105 30/186/105
f 36/185/31 34/187/31 30/186/31
f 34/187/31 32/188/31 30/186/31
f 30/186/105 28/189/105 22/64/105
f 28/189/105 26/190/105 22/64/105
f 26/190/31 24/191/31 22/64/31
f 22/64/106 20/192/106 18/193/106
f 18/193/31 16/194/31 14/195/31
f 14/195/104 12/196/104 6/170/104
f 12/196/31 10/197/31 6/170/31
f 10/197/31 8/198/31 6/170/31
f 54/62/31 50/179/31 46/181/31
f 22/64/31 18/193/31 14/195/31
f 6/170/31 62/174/31 54/62/31
f 54/62/31 46/181/31 38/63/31
f 38/63/31 30/186/31 22/64/31
f 22/64/31 14/195/31 6/170/31
f 6/170/31 54/62/31 22/64/31
f 62/65/99 64/67/99 63/66/99
f 64/67/107 2/199/107 1/68/107
f 11/11/34 70/84/34 69/69/34
f 76/70/108 108/107/108 107/71/108
f 29/29/109 79/86/109 78/73/109
f 45/45/110 47/47/110 88/74/110
f 1/3/38 3/2/38 66/76/38
f 1/68/39 65/124/39 96/78/39
f 21/21/111 75/72/111 74/79/111
f 37/37/41 39/39/41 84/80/41
f 55/55/42 57/57/42 93/82/42
f 13/13/43 71/89/43 70/84/43
f 29/29/44 31/31/44 80/85/44
f 47/47/45 49/49/45 89/87/45
f 5/5/112 67/91/112 66/76/112
f 23/23/113 76/70/113 75/72/113
f 41/41/48 85/93/48 84/80/48
f 57/57/49 59/59/49 94/88/49
f 15/15/114 72/96/114 71/89/114
f 33/33/51 81/98/51 80/85/51
f 49/49/52 51/51/52 90/90/52
f 7/7/53 68/100/53 67/91/53
f 25/25/54 77/101/54 76/70/54
f 41/41/55 43/43/55 86/92/55
f 59/59/56 61/61/56 95/94/56
f 15/15/57 17/17/57 73/95/57
f 33/33/58 35/35/58 82/97/58
f 51/51/115 53/53/115 91/99/115
f 9/9/60 69/69/60 68/100/60
f 25/25/61 27/27/61 78/73/61
f 43/43/62 45/45/62 87/75/62
f 63/66/116 96/78/116 95/94/116
f 19/19/64 74/79/64 73/95/64
f 37/37/117 83/81/117 82/97/117
f 55/55/118 92/83/118 91/99/118
f 110/102/14 111/114/14 143/103/14
f 89/87/67 90/90/67 122/105/67
f 77/101/68 109/109/68 108/107/68
f 90/90/69 91/99/69 123/108/69
f 77/101/119 78/73/119 110/102/119
f 92/83/71 124/113/71 123/108/71
f 79/86/72 111/114/72 110/102/72
f 65/77/73 66/76/73 98/110/73
f 92/83/74 93/82/74 125/112/74
f 80/85/75 112/117/75 111/114/75
f 67/91/76 99/119/76 98/110/76
f 93/82/77 94/88/77 126/115/77
f 80/85/78 81/98/78 113/116/78
f 67/91/120 68/100/120 100/118/120
f 94/88/80 95/94/80 127/120/80
f 82/97/81 114/121/81 113/116/81
f 69/69/121 101/123/121 100/118/121
f 96/78/83 128/125/83 127/120/83
f 83/81/84 115/127/84 114/121/84
f 69/69/85 70/84/85 102/122/85
f 65/124/86 97/152/86 128/125/86
f 83/81/87 84/80/87 116/126/87
f 71/89/88 103/128/88 102/122/88
f 85/93/89 117/130/89 116/126/89
f 72/96/90 104/132/90 103/128/90
f 85/93/91 86/92/91 118/129/91
f 72/96/92 73/95/92 105/131/92
f 86/92/93 87/75/93 119/133/93
f 74/79/94 106/134/94 105/131/94
f 88/74/95 120/135/95 119/133/95
f 74/79/96 75/72/96 107/71/96
f 88/74/122 89/87/122 121/106/122
f 160/138/123 129/200/123 130/201/123
f 130/201/124 131/202/124 132/203/124
f 132/203/125 133/204/125 134/205/125
f 134/205/124 135/206/124 132/203/124
f 135/206/98 136/207/98 132/203/98
f 136/207/98 137/208/98 138/209/98
f 138/209/98 139/210/98 136/207/98
f 139/210/98 140/211/98 136/207/98
f 140/211/124 141/212/124 142/213/124
f 142/213/98 143/214/98 144/215/98
f 144/215/98 145/216/98 148/136/98
f 145/216/98 146/217/98 148/136/98
f 146/217/98 147/218/98 148/136/98
f 148/136/98 149/219/98 150/220/98
f 150/220/124 151/221/124 148/136/124
f 151/221/98 152/137/98 148/136/98
f 152/137/98 153/222/98 154/223/98
f 154/223/98 155/224/98 156/225/98
f 156/225/98 157/226/98 160/138/98
f 157/226/124 158/227/124 160/138/124
f 158/227/123 159/228/123 160/138/123
f 160/138/98 130/201/98 132/203/98
f 140/211/98 142/213/98 136/207/98
f 142/213/98 144/215/98 136/207/98
f 152/137/98 154/223/98 160/138/98
f 154/223/98 156/225/98 160/138/98
f 160/138/98 132/203/98 144/215/98
f 132/203/98 136/207/98 144/215/98
f 144/215/98 148/136/98 160/138/98
f 98/110/1 130/142/1 129/139/1
f 125/112/28 157/143/28 156/140/28
f 111/114/15 112/117/15 144/141/15
f 99/119/2 131/145/2 130/142/2
f 126/115/29 158/146/29 157/143/29
f 112/117/16 113/116/16 145/144/16
f 100/118/3 132/148/3 131/145/3
f 127/120/30 159/149/30 158/146/30
f 113/116/17 114/121/17 146/147/17
f 101/123/4 133/151/4 132/148/4
f 128/125/99 160/153/99 159/149/99
f 114/121/18 115/127/18 147/150/18
f 102/122/5 134/155/5 133/151/5
f 97/152/33 129/229/33 160/153/33
f 115/127/19 116/126/19 148/154/19
f 103/128/6 135/157/6 134/155/6
f 116/126/20 117/130/20 149/156/20
f 104/132/7 136/159/7 135/157/7
f 117/130/21 118/129/21 150/158/21
f 105/131/8 137/162/8 136/159/8
f 118/129/22 119/133/22 151/160/22
f 105/131/9 106/134/9 138/161/9
f 119/133/23 120/135/23 152/163/23
f 106/134/10 107/71/10 139/164/10
f 120/135/24 121/106/24 153/165/24
f 107/71/11 108/107/11 140/166/11
f 122/105/25 154/168/25 153/165/25
f 108/107/12 109/109/12 141/167/12
f 123/108/26 155/169/26 154/168/26
f 109/109/13 110/102/13 142/104/13
f 124/113/27 156/140/27 155/169/27
