# Blender v2.82 (sub 7) OBJ File: 'barrel_scene.blend'
# www.blender.org
mtllib rings.mtl
o Cylinder.002
v -1.432047 1.865523 -5.437778
v -1.432047 1.340802 -5.437778
v -0.628191 1.340802 -5.176589
v -0.628191 1.865523 -5.176589
v -0.131380 1.340802 -4.492788
v -0.131380 1.865523 -4.492788
v -0.131380 1.340802 -3.647564
v -0.131380 1.865523 -3.647564
v -0.628191 1.340802 -2.963763
v -0.628191 1.865523 -2.963763
v -1.432047 1.340802 -2.702574
v -1.432047 1.865523 -2.702574
v -2.235904 1.340802 -2.963763
v -2.235904 1.865523 -2.963763
v -2.732714 1.340802 -3.647564
v -2.732714 1.865523 -3.647564
v -2.732714 1.340802 -4.492789
v -2.732714 1.865523 -4.492789
v -2.235903 1.340802 -5.176590
v -2.235903 1.865523 -5.176590
v -2.324390 1.340802 -5.298382
v -2.324390 1.865523 -5.298382
v -1.432047 1.865523 -5.588322
v -1.432047 1.340802 -5.588322
v -2.875889 1.340802 -4.539309
v -2.875889 1.865523 -4.539309
v -2.875889 1.340802 -3.601043
v -2.875889 1.865523 -3.601043
v -2.324390 1.340802 -2.841971
v -2.324390 1.865523 -2.841971
v -1.432047 1.340802 -2.552031
v -1.432047 1.865523 -2.552031
v -0.539704 1.340802 -2.841971
v -0.539704 1.865523 -2.841971
v 0.011795 1.340802 -3.601043
v 0.011795 1.865523 -3.601043
v 0.011795 1.340802 -4.539309
v 0.011795 1.865523 -4.539309
v -0.539703 1.340802 -5.298382
v -0.539703 1.865523 -5.298382
v -1.432047 3.060392 -5.437778
v -1.432047 2.535671 -5.437778
v -0.628191 2.535671 -5.176589
v -0.628191 3.060392 -5.176589
v -0.131380 2.535671 -4.492788
v -0.131380 3.060392 -4.492788
v -0.131380 2.535671 -3.647563
v -0.131380 3.060392 -3.647563
v -0.628191 2.535671 -2.963762
v -0.628191 3.060392 -2.963762
v -1.432047 2.535671 -2.702574
v -1.432047 3.060392 -2.702574
v -2.235904 2.535671 -2.963762
v -2.235904 3.060392 -2.963762
v -2.732714 2.535671 -3.647563
v -2.732714 3.060392 -3.647563
v -2.732714 2.535671 -4.492788
v -2.732714 3.060392 -4.492788
v -2.235903 2.535671 -5.176589
v -2.235903 3.060392 -5.176589
v -2.324390 2.535671 -5.298382
v -2.324390 3.060392 -5.298382
v -1.432047 3.060392 -5.588321
v -1.432047 2.535671 -5.588321
v -2.875889 2.535671 -4.539309
v -2.875889 3.060392 -4.539309
v -2.875889 2.535671 -3.601043
v -2.875889 3.060392 -3.601043
v -2.324390 2.535671 -2.841970
v -2.324390 3.060392 -2.841970
v -1.432047 2.535671 -2.552031
v -1.432047 3.060392 -2.552031
v -0.539704 2.535671 -2.841970
v -0.539704 3.060392 -2.841970
v 0.011795 2.535671 -3.601043
v 0.011795 3.060392 -3.601043
v 0.011795 2.535671 -4.539309
v 0.011795 3.060392 -4.539309
v -0.539703 2.535671 -5.298381
v -0.539703 3.060392 -5.298381
vt 0.100000 0.703262
vt -0.000000 0.703262
vt 0.100000 0.703262
vt 0.400000 0.703262
vt 0.500000 0.703262
vt 0.500000 0.703262
vt 0.600000 0.630071
vt 0.700000 0.630071
vt 0.600000 0.630071
vt 0.600000 0.703262
vt 0.700000 0.703262
vt 0.700000 0.703262
vt 0.900000 0.630071
vt 0.800000 0.630071
vt 0.800000 0.630071
vt 0.800000 0.703262
vt 0.900000 0.703262
vt 0.900000 0.703262
vt 0.100000 0.630071
vt 0.200000 0.630071
vt 0.100000 0.630071
vt 0.200000 0.703262
vt 0.200000 0.703262
vt 0.400000 0.630071
vt 0.300000 0.630071
vt 0.300000 0.630071
vt 0.300000 0.703262
vt 0.400000 0.703262
vt 0.500000 0.630071
vt 0.500000 0.630071
vt 0.400000 0.630071
vt 0.600000 0.703262
vt 0.800000 0.703262
vt 0.900000 0.630071
vt 1.000000 0.630071
vt 1.000000 0.703262
vt 0.300000 0.703262
vt 1.000000 0.703262
vt 0.200000 0.630071
vt -0.000000 0.630071
vt -0.000000 0.630071
vt 0.700000 0.630071
vt 0.800000 0.869929
vt 0.900000 0.869929
vt 0.900000 0.869929
vt 0.100000 0.796738
vt 0.200000 0.796738
vt 0.100000 0.796738
vt 0.100000 0.869929
vt 0.200000 0.869929
vt 0.200000 0.869929
vt 0.400000 0.796738
vt 0.300000 0.796738
vt 0.300000 0.796738
vt 0.400000 0.869929
vt 0.300000 0.869929
vt 0.400000 0.869929
vt 0.600000 0.796738
vt 0.500000 0.796738
vt 0.500000 0.796738
vt 0.600000 0.869929
vt 0.500000 0.869929
vt 0.600000 0.869929
vt 0.800000 0.796738
vt 0.700000 0.796738
vt 0.700000 0.796738
vt 0.700000 0.869929
vt 0.800000 0.869929
vt -0.000000 0.869929
vt 0.100000 0.869929
vt 0.400000 0.796738
vt 0.600000 0.796738
vt 0.700000 0.869929
vt 0.800000 0.796738
vt 0.900000 0.796738
vt 1.000000 0.796738
vt 1.000000 0.869929
vt 0.900000 0.796738
vt 0.500000 0.869929
vt 1.000000 0.869929
vt 0.300000 0.869929
vt 0.200000 0.796738
vt -0.000000 0.796738
vt -0.000000 0.796738
vt -0.000000 0.703262
vt 1.000000 0.630071
vt -0.000000 0.869929
vt 1.000000 0.796738
vn 0.0000 1.0000 0.0000
vn 0.0000 -1.0000 0.0000
vn -0.3090 0.0000 -0.9511
vn -0.8090 0.0000 -0.5878
vn -1.0000 0.0000 0.0000
vn -0.8090 0.0000 0.5878
vn -0.3090 0.0000 0.9511
vn 0.3090 0.0000 0.9511
vn 0.8090 0.0000 0.5878
vn 1.0000 0.0000 0.0000
vn 0.8090 0.0000 -0.5878
vn 0.3090 0.0000 -0.9511
usemtl Material.003
s off
f 20/1/1 23/2/1 22/3/1
f 14/4/1 32/5/1 12/6/1
f 9/7/2 35/8/2 33/9/2
f 10/10/1 36/11/1 8/12/1
f 3/13/2 37/14/2 5/15/2
f 6/16/1 40/17/1 4/18/1
f 19/19/2 25/20/2 21/21/2
f 20/1/1 26/22/1 18/23/1
f 13/24/2 27/25/2 15/26/2
f 14/4/1 28/27/1 30/28/1
f 9/7/2 31/29/2 11/30/2
f 23/2/3 21/21/3 22/3/3
f 22/3/4 25/20/4 26/22/4
f 26/22/5 27/25/5 28/27/5
f 28/27/6 29/31/6 30/28/6
f 30/28/7 31/29/7 32/5/7
f 32/5/8 33/9/8 34/32/8
f 34/32/9 35/8/9 36/11/9
f 36/11/10 37/14/10 38/33/10
f 38/33/11 39/34/11 40/17/11
f 40/17/12 24/35/12 23/36/12
f 11/30/2 29/31/2 13/24/2
f 18/23/1 28/27/1 16/37/1
f 4/18/1 23/36/1 1/38/1
f 15/26/2 25/20/2 17/39/2
f 19/19/2 24/40/2 2/41/2
f 3/13/2 24/35/2 39/34/2
f 8/12/1 38/33/1 6/16/1
f 5/15/2 35/8/2 7/42/2
f 10/10/1 32/5/1 34/32/1
f 46/43/1 80/44/1 44/45/1
f 59/46/2 65/47/2 61/48/2
f 60/49/1 66/50/1 58/51/1
f 53/52/2 67/53/2 55/54/2
f 54/55/1 68/56/1 70/57/1
f 49/58/2 71/59/2 51/60/2
f 50/61/1 72/62/1 74/63/1
f 45/64/2 75/65/2 47/66/2
f 48/67/1 78/68/1 46/43/1
f 63/69/3 61/48/3 62/70/3
f 62/70/4 65/47/4 66/50/4
f 66/50/5 67/53/5 68/56/5
f 68/56/6 69/71/6 70/57/6
f 70/57/7 71/59/7 72/62/7
f 72/62/8 73/72/8 74/63/8
f 74/63/9 75/65/9 76/73/9
f 76/73/10 77/74/10 78/68/10
f 78/68/11 79/75/11 80/44/11
f 80/44/12 64/76/12 63/77/12
f 43/78/2 77/74/2 45/64/2
f 50/61/1 76/73/1 48/67/1
f 49/58/2 75/65/2 73/72/2
f 54/55/1 72/62/1 52/79/1
f 51/60/2 69/71/2 53/52/2
f 44/45/1 63/77/1 41/80/1
f 58/51/1 68/56/1 56/81/1
f 60/49/1 63/69/1 62/70/1
f 43/78/2 64/76/2 79/75/2
f 55/54/2 65/47/2 57/82/2
f 59/46/2 64/83/2 42/84/2
f 20/1/1 1/85/1 23/2/1
f 14/4/1 30/28/1 32/5/1
f 9/7/2 7/42/2 35/8/2
f 10/10/1 34/32/1 36/11/1
f 3/13/2 39/34/2 37/14/2
f 6/16/1 38/33/1 40/17/1
f 19/19/2 17/39/2 25/20/2
f 20/1/1 22/3/1 26/22/1
f 13/24/2 29/31/2 27/25/2
f 14/4/1 16/37/1 28/27/1
f 9/7/2 33/9/2 31/29/2
f 23/2/3 24/40/3 21/21/3
f 22/3/4 21/21/4 25/20/4
f 26/22/5 25/20/5 27/25/5
f 28/27/6 27/25/6 29/31/6
f 30/28/7 29/31/7 31/29/7
f 32/5/8 31/29/8 33/9/8
f 34/32/9 33/9/9 35/8/9
f 36/11/10 35/8/10 37/14/10
f 38/33/11 37/14/11 39/34/11
f 40/17/12 39/34/12 24/35/12
f 11/30/2 31/29/2 29/31/2
f 18/23/1 26/22/1 28/27/1
f 4/18/1 40/17/1 23/36/1
f 15/26/2 27/25/2 25/20/2
f 19/19/2 21/21/2 24/40/2
f 3/13/2 2/86/2 24/35/2
f 8/12/1 36/11/1 38/33/1
f 5/15/2 37/14/2 35/8/2
f 10/10/1 12/6/1 32/5/1
f 46/43/1 78/68/1 80/44/1
f 59/46/2 57/82/2 65/47/2
f 60/49/1 62/70/1 66/50/1
f 53/52/2 69/71/2 67/53/2
f 54/55/1 56/81/1 68/56/1
f 49/58/2 73/72/2 71/59/2
f 50/61/1 52/79/1 72/62/1
f 45/64/2 77/74/2 75/65/2
f 48/67/1 76/73/1 78/68/1
f 63/69/3 64/83/3 61/48/3
f 62/70/4 61/48/4 65/47/4
f 66/50/5 65/47/5 67/53/5
f 68/56/6 67/53/6 69/71/6
f 70/57/7 69/71/7 71/59/7
f 72/62/8 71/59/8 73/72/8
f 74/63/9 73/72/9 75/65/9
f 76/73/10 75/65/10 77/74/10
f 78/68/11 77/74/11 79/75/11
f 80/44/12 79/75/12 64/76/12
f 43/78/2 79/75/2 77/74/2
f 50/61/1 74/63/1 76/73/1
f 49/58/2 47/66/2 75/65/2
f 54/55/1 70/57/1 72/62/1
f 51/60/2 71/59/2 69/71/2
f 44/45/1 80/44/1 63/77/1
f 58/51/1 66/50/1 68/56/1
f 60/49/1 41/87/1 63/69/1
f 43/78/2 42/88/2 64/76/2
f 55/54/2 67/53/2 65/47/2
f 59/46/2 61/48/2 64/83/2
