# Blender v2.83.0 OBJ File: 'house.blend'
# www.blender.org
mtllib roof_1.mtl
o Cube.005
v -5.956223 5.979741 3.000000
v -5.956223 6.554303 3.000000
v -5.956223 5.979741 -3.000000
v -5.956223 6.554303 -3.000000
v 5.956223 5.979741 3.000000
v 5.956223 6.554303 3.000000
v 5.956223 5.979741 -3.000000
v 5.956223 6.554303 -3.000000
v -5.956223 5.960346 0.000000
v -5.956223 9.458340 0.000000
v 5.956223 5.960346 0.000000
v 5.956223 9.458340 0.000000
v -5.956223 5.847382 3.488117
v -5.956223 6.125659 3.488117
v -5.956223 6.125659 -3.488117
v -5.956223 5.847382 -3.488117
v 5.956223 5.847382 -3.488117
v 5.956223 6.125659 -3.488117
v 5.956223 6.125659 3.488117
v 5.956223 5.847382 3.488117
v -5.956223 6.383487 3.000000
v -5.956223 6.383487 -3.000000
v 5.956223 6.383487 -3.000000
v 5.956223 6.383487 3.000000
v 5.956223 9.163441 0.000000
v -5.956223 9.163441 0.000000
v -5.956223 6.042928 3.488117
v -5.956223 6.042928 -3.488117
v 5.956223 6.042928 -3.488117
v 5.956223 6.042928 3.488117
v -6.509904 6.383487 3.000000
v -6.509904 6.554303 3.000000
v -6.509904 9.458340 0.000000
v -6.509904 6.554303 -3.000000
v -6.509904 6.383487 -3.000000
v -6.509904 5.979741 -3.000000
v 6.602184 9.458340 0.000000
v 6.602184 6.554303 3.000000
v 6.602184 6.383487 3.000000
v 6.602184 5.979741 3.000000
v 6.602184 6.554303 -3.000000
v -6.509904 6.042928 3.488116
v -6.509904 6.125659 3.488116
v -6.509904 6.042928 -3.488116
v -6.509904 5.847382 -3.488116
v 6.602184 6.042928 3.488116
v 6.602184 5.847382 3.488116
v 6.602184 6.125659 -3.488116
v 6.602184 6.125659 3.488116
v -6.509904 6.125659 -3.488116
v -6.509904 5.979741 3.000000
v -6.509904 5.847382 3.488116
v 6.602184 6.383487 -3.000000
v 6.602184 9.163441 0.000000
v -6.509904 9.163441 0.000000
v 6.602184 6.042928 -3.488116
vt 0.309726 0.557777
vt 0.291123 0.584979
vt 0.279412 0.578964
vt 0.034710 0.350509
vt 0.041852 0.325888
vt 0.063539 1.009885
vt -0.004688 0.134328
vt 0.063539 0.134328
vt 0.020964 0.351947
vt 0.023368 0.311334
vt 0.176111 0.187446
vt 0.594057 0.271849
vt 0.441986 0.400635
vt 0.056811 1.007141
vt 1.324515 0.124962
vt 1.324514 1.007143
vt 1.321727 0.134327
vt 0.041120 0.061165
vt 0.007150 0.310100
vt 0.022536 0.046061
vt 0.016348 0.356790
vt 0.006900 0.341911
vt 0.845169 0.529089
vt -0.596087 0.460682
vt 0.838031 0.507619
vt -0.222671 0.066756
vt 1.151383 0.123501
vt -0.218229 0.087506
vt 0.056809 0.124964
vt 1.324515 -0.012291
vt -0.004688 -0.001895
vt 0.063539 -0.001895
vt 1.321727 -0.001895
vt 0.605997 0.293614
vt 0.613647 0.560654
vt 0.594265 0.545302
vt 0.620731 0.289747
vt 0.290775 0.039777
vt 0.603358 0.248155
vt 0.821197 0.449471
vt 0.904509 0.470225
vt 0.922980 0.483082
vt -0.002114 0.124964
vt 1.137223 0.170037
vt -0.209512 0.129584
vt -0.557776 0.418549
vt 0.978835 0.071354
vt 0.486549 0.001918
vt 0.978835 0.005101
vt 0.956855 0.072311
vt 0.478736 0.004873
vt 0.956855 0.007964
vt 0.611971 0.256143
vt 0.607628 0.270173
vt 0.000617 0.072311
vt 0.000617 0.007964
vt -0.005738 0.071354
vt -0.005738 0.005101
vt 0.341237 0.602781
vt 0.333724 0.595352
vt 0.260670 0.000305
vt 0.267382 0.006510
vt 0.000186 0.303979
vt 0.627995 0.296090
vt 0.301687 0.000186
vt 0.302940 0.004674
vt 0.292411 0.601499
vt 0.291144 0.596186
vt 0.620029 0.256312
vt 0.624308 0.257131
vt 0.309642 0.579980
vt 0.288728 0.018503
vt 0.303513 0.013839
vt 0.002467 0.342293
vt -0.292421 0.104165
vt 1.393257 0.124962
vt 1.393257 1.007143
vt -0.002114 -0.012290
vt 0.056809 -0.012290
vt 0.264529 0.030190
vt 1.380206 1.009887
vt 1.321726 1.009887
vt 1.393257 -0.012291
vt -0.278894 0.114591
vt 0.338240 0.571711
vt 0.315653 0.019286
vt 1.380207 -0.001895
vt 1.380207 0.134327
vt 1.180035 0.174583
vt 1.159464 0.101151
vt 1.204057 0.157396
vt -0.004688 1.009885
vt -0.596989 0.488234
vt 0.873698 0.435830
vt -0.002111 1.007142
vt 0.486549 0.527532
vt 0.478736 0.515360
vt 0.627995 0.573810
vt 0.009378 0.034437
vt -0.257102 0.140236
vt 1.218417 0.150410
vn 0.0000 -0.9651 0.2617
vn 0.0000 0.7185 -0.6955
vn 1.0000 0.0000 0.0000
vn 0.0000 -1.0000 0.0065
vn 0.0000 0.7185 0.6955
vn 0.0000 -1.0000 -0.0065
vn 0.0000 -0.7335 0.6797
vn 0.0000 0.0000 -1.0000
vn 0.0000 0.0000 1.0000
vn 0.0000 0.7514 0.6598
vn 0.0000 0.7514 -0.6598
vn 0.0000 -0.7335 -0.6797
vn 0.0000 -0.9651 -0.2617
vn -1.0000 0.0000 0.0000
vn 0.0000 -0.8201 0.5722
usemtl Material.003
s off
f 3/1/1 45/2/1 16/3/1
f 3/1/1 17/4/1 7/5/1
f 12/6/2 41/7/2 8/8/2
f 7/5/3 29/9/3 23/10/3
f 11/11/4 1/12/4 9/13/4
f 10/14/5 6/15/5 12/16/5
f 4/17/2 12/6/2 8/8/2
f 7/5/6 9/13/6 3/1/6
f 25/18/7 53/19/7 54/20/7
f 18/21/8 56/22/8 29/9/8
f 15/23/8 29/24/8 28/25/8
f 19/26/9 27/27/9 30/28/9
f 2/29/10 19/30/10 6/15/10
f 8/8/11 48/31/11 18/32/11
f 8/8/11 15/33/11 4/17/11
f 21/34/12 55/35/12 26/36/12
f 1/12/8 31/37/8 21/34/8
f 5/38/13 13/39/13 1/12/13
f 16/40/8 44/41/8 28/25/8
f 28/25/8 50/42/8 15/23/8
f 10/14/5 32/43/5 2/29/5
f 30/28/9 13/44/9 20/45/9
f 28/25/8 17/46/8 16/40/8
f 21/47/14 9/48/14 1/49/14
f 23/50/3 11/51/3 7/52/3
f 1/12/13 52/53/13 51/54/13
f 11/51/3 24/55/3 5/56/3
f 9/48/14 22/57/14 3/58/14
f 55/35/14 34/59/14 35/60/14
f 54/20/3 38/61/3 39/62/3
f 41/63/3 54/20/3 53/19/3
f 32/64/14 55/35/14 31/37/14
f 39/62/3 49/65/3 46/66/3
f 35/60/14 50/67/14 44/68/14
f 51/54/14 42/69/14 31/37/14
f 31/37/14 43/70/14 32/64/14
f 36/71/14 44/68/14 45/2/14
f 40/72/3 46/66/3 47/73/3
f 53/19/3 48/74/3 41/63/3
f 30/28/9 49/75/9 19/26/9
f 12/16/5 38/76/5 37/77/5
f 23/10/15 56/22/15 53/19/15
f 2/29/10 43/78/10 14/79/10
f 24/80/8 40/72/8 5/38/8
f 4/17/2 33/81/2 10/82/2
f 25/18/12 39/62/12 24/80/12
f 6/15/10 49/83/10 38/76/10
f 20/45/9 46/84/9 30/28/9
f 22/85/9 36/71/9 3/1/9
f 26/36/7 35/60/7 22/85/7
f 5/38/13 47/73/13 20/86/13
f 4/17/11 50/87/11 34/88/11
f 27/27/9 52/89/9 13/44/9
f 14/90/9 42/91/9 27/27/9
f 3/1/1 36/71/1 45/2/1
f 3/1/1 16/3/1 17/4/1
f 12/6/2 37/92/2 41/7/2
f 7/5/3 17/4/3 29/9/3
f 11/11/4 5/38/4 1/12/4
f 10/14/5 2/29/5 6/15/5
f 4/17/2 10/82/2 12/6/2
f 7/5/6 11/11/6 9/13/6
f 25/18/7 23/10/7 53/19/7
f 18/21/8 48/74/8 56/22/8
f 15/23/8 18/93/8 29/24/8
f 19/26/9 14/90/9 27/27/9
f 2/29/10 14/79/10 19/30/10
f 8/8/11 41/7/11 48/31/11
f 8/8/11 18/32/11 15/33/11
f 21/34/12 31/37/12 55/35/12
f 1/12/8 51/54/8 31/37/8
f 5/38/13 20/86/13 13/39/13
f 16/40/8 45/94/8 44/41/8
f 28/25/8 44/41/8 50/42/8
f 10/14/5 33/95/5 32/43/5
f 30/28/9 27/27/9 13/44/9
f 28/25/8 29/24/8 17/46/8
f 21/47/14 26/96/14 9/48/14
f 23/50/3 25/97/3 11/51/3
f 1/12/13 13/39/13 52/53/13
f 11/51/3 25/97/3 24/55/3
f 9/48/14 26/96/14 22/57/14
f 55/35/14 33/98/14 34/59/14
f 54/20/3 37/99/3 38/61/3
f 41/63/3 37/99/3 54/20/3
f 32/64/14 33/98/14 55/35/14
f 39/62/3 38/61/3 49/65/3
f 35/60/14 34/59/14 50/67/14
f 51/54/14 52/53/14 42/69/14
f 31/37/14 42/69/14 43/70/14
f 36/71/14 35/60/14 44/68/14
f 40/72/3 39/62/3 46/66/3
f 53/19/3 56/22/3 48/74/3
f 30/28/9 46/84/9 49/75/9
f 12/16/5 6/15/5 38/76/5
f 23/10/15 29/9/15 56/22/15
f 2/29/10 32/43/10 43/78/10
f 24/80/8 39/62/8 40/72/8
f 4/17/2 34/88/2 33/81/2
f 25/18/12 54/20/12 39/62/12
f 6/15/10 19/30/10 49/83/10
f 20/45/9 47/100/9 46/84/9
f 22/85/9 35/60/9 36/71/9
f 26/36/7 55/35/7 35/60/7
f 5/38/13 40/72/13 47/73/13
f 4/17/11 15/33/11 50/87/11
f 27/27/9 42/91/9 52/89/9
f 14/90/9 43/101/9 42/91/9
