# Blender v2.83.0 OBJ File: 'house.blend'
# www.blender.org
mtllib walls_1.mtl
o Cube
v 6.000000 5.995205 -3.000000
v 6.000000 -0.004795 -3.000000
v 6.000000 5.995205 3.000000
v 6.000000 -0.004795 3.000000
v -6.000000 5.995205 -3.000000
v -6.000000 -0.004795 -3.000000
v -6.000000 5.995205 3.000000
v -6.000000 -0.004795 3.000000
v 6.000000 2.107697 -3.000000
v -6.000000 2.107697 3.000000
v 6.000000 2.107697 3.000000
v -6.000000 2.107697 -3.000000
v 4.334558 -0.004795 -3.000000
v 2.187607 -0.004795 -3.000000
v 4.334558 5.995205 3.000000
v 2.187607 5.995205 3.000000
v 2.187607 -0.004795 3.000000
v 4.368359 -0.004795 3.000000
v 2.187607 5.995205 -3.000000
v 4.334558 5.995205 -3.000000
v 2.187607 2.107697 -3.000000
v 4.334558 2.107697 -3.000000
v 4.402159 2.107697 3.000000
v 2.201534 2.107697 3.000000
v 4.368359 0.867756 3.000000
v 2.201534 0.867756 3.000000
v 2.159734 -0.004795 2.848746
v 4.198441 -0.004795 -2.848746
v 2.187607 -0.004795 3.900000
v 4.368359 -0.004795 3.900000
v 4.368359 0.867756 3.900000
v 2.187607 0.867756 3.900000
v 5.779913 -0.004795 -2.848746
v 5.779913 -0.004795 2.848746
v 4.230536 -0.004795 2.848746
v 4.368359 0.431481 3.000000
v 2.187607 0.431481 3.000000
v 2.159734 -0.004795 -2.848746
v -5.615070 -0.004795 2.848746
v -5.615070 -0.004795 -2.848746
v 4.368359 0.431481 3.900000
v 2.187607 0.431481 3.900000
v 2.187607 -0.004795 4.800000
v 4.334558 -0.004795 4.800000
v 4.334558 0.431481 4.800000
v 2.187607 0.431481 4.800000
v -6.000000 4.706412 3.000000
v 6.000000 4.706412 -3.000000
v 6.000000 4.706412 3.000000
v -6.000000 4.706412 -3.000000
v 2.187607 4.706412 -3.000000
v 4.334558 4.706412 -3.000000
v 4.334558 4.706412 3.000000
v 2.187607 4.706412 3.000000
v -6.166524 -0.004795 -3.150000
v -6.166524 -0.004795 3.150000
v 2.215460 -0.004795 -3.150000
v 6.218472 -0.004795 -3.150000
v 6.218472 -0.004795 3.150000
v 4.402159 -0.004795 3.150000
v 4.469759 -0.004795 -3.150000
v 2.215460 -0.004795 3.150000
v 4.402159 0.431481 3.150000
v 2.215460 0.431481 3.150000
v 4.402159 0.867756 3.150000
v 2.201534 0.867756 3.150000
v 4.198441 5.588570 -2.848746
v 4.230536 5.588570 2.848746
v 2.159734 5.588570 -2.848746
v 2.159734 5.588570 2.848746
v -5.615070 5.588570 2.848746
v 5.779913 5.588570 -2.848746
v 5.779913 5.588570 2.848746
v -5.615070 5.588570 -2.848746
v 4.402159 2.107697 3.000000
v 2.201534 2.107697 3.000000
v 4.334558 4.706412 3.000000
v 2.187607 4.706412 3.000000
v 4.368359 0.867756 3.000000
v 2.201534 0.867756 3.000000
v -5.615070 1.561460 2.848746
v -5.615070 1.561460 -2.848746
v 5.779913 1.561460 2.848746
v 2.159734 1.561460 2.848746
v 5.779913 1.561460 -2.848746
v 4.198441 1.561460 -2.848746
v 2.159734 1.561460 -2.848746
v 4.311561 1.561460 2.848746
v 4.311561 0.892181 2.848746
v 4.311561 0.892181 3.000000
v 4.311561 5.174542 2.848746
v 4.311561 2.107697 3.000000
v 4.311561 5.174542 3.000000
v 4.311561 4.706411 3.000000
v 4.311561 4.706411 3.000000
v 2.261715 5.174542 3.000000
v 2.261715 4.706412 3.000000
v 2.261715 4.706412 3.000000
v 2.261715 5.174542 2.848746
v 2.261715 2.107697 3.000000
v 2.261715 0.892181 3.000000
v 2.261715 1.561460 2.848746
v 2.261715 0.892181 2.848746
v 4.230536 5.174542 2.848746
v 4.230536 0.892181 2.848746
v -3.665626 4.210605 3.000000
v -3.665626 4.210605 2.848746
v -4.521955 4.482890 3.000000
v -4.521955 4.482890 2.848746
v -5.378285 4.210605 3.000000
v -5.378285 4.210605 2.848746
v -3.665626 2.497945 3.000000
v -3.665626 2.497945 2.848746
v -4.521955 2.497945 3.000000
v -4.521955 2.497945 2.848746
v -5.378285 2.497945 3.000000
v -5.378285 2.497945 2.848746
v -0.427350 4.210605 3.000000
v -0.427350 4.210605 2.848746
v -1.108553 4.427206 3.000000
v -1.283680 4.482890 3.000000
v -1.283680 4.482890 2.848746
v -2.140010 4.210605 3.000000
v -2.140010 4.210605 2.848746
v -1.585997 4.386763 3.000000
v -0.427350 2.497945 3.000000
v -0.427350 2.497945 2.848746
v -1.283680 2.497945 3.000000
v -1.283680 2.497945 2.848746
v -2.140010 2.497945 3.000000
v -2.140010 2.497945 2.848746
vt 0.875000 0.500000
vt 0.744616 0.750000
vt 0.744616 0.500000
vt 1.956055 2.424512
vt 0.000294 1.619016
vt 1.956055 1.619016
vt 3.750294 2.429973
vt 0.000294 1.624479
vt 3.750294 1.624477
vt 0.125000 0.500000
vt 0.125000 0.750000
vt 0.125000 0.750000
vt 3.750294 2.423051
vt 0.000294 1.617555
vt 3.750294 1.617555
vt 0.544533 2.426512
vt 0.000294 1.621017
vt 0.544533 1.621017
vt 0.393178 0.869616
vt 0.375000 0.869616
vt 0.375000 0.869616
vt 0.375000 0.786283
vt 0.393178 0.786283
vt 0.393178 0.786283
vt 0.255384 0.750000
vt 0.125000 0.750000
vt 3.750294 2.426512
vt 1.794533 1.621017
vt 3.750294 1.621018
vt 1.794533 2.426512
vt 0.255384 0.750000
vt 0.255384 0.750000
vt 0.338717 0.750000
vt 0.375000 0.750000
vt 0.375000 0.750000
vt 3.750294 2.424512
vt 3.206056 1.619016
vt 3.750294 1.619016
vt 1.999203 1.911598
vt 3.192666 1.911598
vt 3.206056 2.424512
vt 0.661283 0.500000
vt 0.625000 0.750000
vt 0.625000 0.500000
vt 0.661283 0.750000
vt 0.255384 0.500000
vt 0.255384 0.500000
vt 0.338717 0.750000
vt 1.770583 0.430443
vt 0.887433 0.002336
vt 1.770583 0.002336
vt 0.125000 0.500000
vt 0.338717 0.500000
vt 0.338717 0.500000
vt 0.411356 0.786283
vt 0.393178 0.869616
vt 0.393178 0.786283
vt 0.255384 0.750000
vt 2.655020 0.430443
vt 1.771870 0.002336
vt 2.655020 0.002336
vt 0.988370 0.415761
vt 0.001161 0.825803
vt 0.001161 0.415761
vt 1.770583 0.859838
vt 0.887433 0.431731
vt 1.770583 0.431731
vt 0.895233 0.434751
vt 0.011462 0.006644
vt 0.895233 0.006644
vt 0.411356 0.869616
vt 0.393178 0.869616
vt 0.375000 0.500000
vt 0.375000 0.500000
vt 0.411356 0.786283
vt 0.411356 0.786283
vt 0.002996 0.002336
vt 0.886146 0.430443
vt 0.002890 0.430661
vt 0.375000 0.750000
vt 0.393178 0.786283
vt 0.375000 0.869616
vt 0.375000 0.786283
vt 0.001161 0.415163
vt 0.979316 0.005121
vt 0.994715 0.415163
vt 1.779671 0.434751
vt 0.896521 0.006644
vt 1.779671 0.006644
vt 0.338717 0.750000
vt 0.255384 0.750000
vt 0.571300 0.786283
vt 0.463021 0.786283
vt 0.463021 0.786283
vt 3.206056 -0.005180
vt 3.750294 -0.005180
vt 0.544533 -0.003180
vt 1.794533 -0.003180
vt 3.750294 -0.003180
vt 0.000294 -0.003180
vt 0.000294 -0.006641
vt 3.750294 -0.006641
vt 0.000294 0.000281
vt 3.750294 0.000281
vt 0.921017 0.238725
vt 0.557710 1.309137
vt 0.557109 0.238725
vt 0.340615 0.750000
vt 0.338717 0.750000
vt 0.375000 0.750000
vt 0.125000 0.500000
vt 0.125000 0.750000
vt 0.125000 0.750000
vt 0.375000 0.500000
vt 0.338717 0.500000
vt 0.338717 0.750000
vt 0.125000 0.500000
vt 0.255384 0.500000
vt 0.375000 0.500000
vt 0.338717 0.500000
vt 0.255384 0.500000
vt 0.125000 0.500000
vt 0.255384 0.750000
vt 0.375000 0.500000
vt 0.338717 0.500000
vt 0.255384 0.500000
vt 0.375000 0.750000
vt 0.128971 0.750000
vt 0.128971 0.750000
vt 0.411356 0.786283
vt 0.412374 0.867306
vt 0.411356 0.869616
vt 0.571300 0.786283
vt 0.463021 0.789713
vt 0.463021 0.869616
vt 0.463021 0.869616
vt 0.571300 0.869616
vt 0.571300 0.869616
vt 0.255384 0.750000
vt 0.340615 0.750000
vt 0.340615 0.750000
vt 0.259488 0.750000
vt 0.259488 0.750000
vt 0.259488 0.750000
vt 0.875000 0.693527
vt 0.875000 0.687225
vt 0.634882 0.687225
vt 0.597671 0.693527
vt 0.625000 0.687225
vt 0.445961 0.693527
vt 0.571300 0.866739
vt 0.463021 0.867337
vt 0.597671 0.056473
vt 0.445961 0.056473
vt 0.625000 0.062775
vt 0.375000 0.693527
vt 0.375000 0.687225
vt 0.365118 0.687225
vt 0.375000 0.675674
vt 0.625000 0.653595
vt 0.375000 0.653595
vt 0.157692 0.750000
vt 0.183277 0.750000
vt 0.375000 0.096405
vt 0.625000 0.074326
vt 0.375000 0.074326
vt 0.125000 0.653595
vt 0.250000 0.675674
vt 0.250000 0.653595
vt 0.353287 1.479315
vt 1.126788 1.479315
vt 0.750000 0.675674
vt 0.750000 0.653595
vt 0.875000 0.653595
vt 0.125000 0.633627
vt 0.250000 0.611548
vt 0.125000 0.611548
vt 0.197638 0.750000
vt 0.794130 0.633627
vt 0.875000 0.633627
vt 0.875000 0.611548
vt 0.724437 0.633627
vt 0.750000 0.633627
vt 0.750000 0.611548
vt 0.375000 0.633627
vt 0.625000 0.611548
vt 0.375000 0.611548
vt 0.375000 0.138452
vt 0.625000 0.116373
vt 0.375000 0.116373
vt 0.250000 0.633627
vt 0.875000 0.750000
vt 0.000294 2.424512
vt 0.000294 2.429973
vt 0.000294 2.423051
vt 0.000294 2.426512
vt 0.375000 0.786283
vt 3.192667 1.619016
vt 1.999203 1.619016
vt 0.887433 0.430443
vt 0.411356 0.869616
vt 0.338717 0.750000
vt 1.771870 0.430443
vt 0.994715 0.825803
vt 0.887433 0.859838
vt 0.011461 0.434751
vt 0.411356 0.869616
vt 0.886146 0.002336
vt 0.393178 0.869616
vt 0.001161 0.005121
vt 0.896521 0.434751
vt 1.168598 1.444512
vt 1.331088 1.309137
vt 1.329516 0.238725
vt 1.125267 0.238725
vt 1.956055 -0.005180
vt 0.148613 0.238725
vt 0.000294 -0.005180
vt 0.352862 0.238725
vt 0.922093 1.309137
vt 1.054536 1.419236
vt 0.338717 0.750000
vt 0.143332 0.750000
vt 0.412374 0.788488
vt 0.571300 0.787175
vt 0.338717 0.750000
vt 0.625000 0.693527
vt 0.414072 0.687225
vt 0.597671 0.693527
vt 0.375000 0.056473
vt 0.414072 0.062775
vt 0.375000 0.062775
vt 0.625000 0.056473
vt 0.597671 0.056473
vt 0.125000 0.687225
vt 0.125000 0.693527
vt 0.625000 0.675674
vt 0.157692 0.750000
vt 0.183277 0.750000
vt 0.197638 0.750000
vt 0.211998 0.750000
vt 0.625000 0.096405
vt 0.125000 0.675674
vt 0.148728 1.309137
vt 0.875000 0.675674
vt 0.211998 0.750000
vt 0.143332 0.750000
vt 0.625000 0.633627
vt 0.625000 0.138452
vn 0.0000 1.0000 0.0000
vn 0.0000 0.0000 1.0000
vn -1.0000 0.0000 0.0000
vn 0.0000 -1.0000 0.0000
vn 1.0000 0.0000 0.0000
vn 0.0000 0.0000 -1.0000
vn 0.9832 0.0000 -0.1826
vn -0.9755 0.0000 0.2198
vn 0.9993 0.0000 0.0375
vn 0.9827 -0.0314 -0.1825
vn -0.9994 0.0319 -0.0155
vn -0.3030 -0.9530 0.0000
vn 0.3030 -0.9530 0.0000
vn 0.9995 0.0319 0.0000
usemtl Material.001
s off
f 5/1/1 16/2/1 19/3/1
f 16/4/2 47/5/2 54/6/2
f 7/7/3 50/8/3 47/9/3
f 6/10/4 39/11/4 8/12/4
f 1/13/5 49/14/5 48/15/5
f 20/16/6 48/17/6 52/18/6
f 37/19/7 62/20/7 17/21/7
f 18/22/8 63/23/8 36/24/8
f 8/12/4 62/25/4 56/26/4
f 5/27/6 51/28/6 50/29/6
f 19/30/6 52/18/6 51/28/6
f 17/31/4 39/11/4 27/32/4
f 18/33/4 34/34/4 4/35/4
f 3/36/2 53/37/2 49/38/2
f 96/39/2 93/40/2 15/41/2
f 20/42/1 3/43/1 1/44/1
f 19/3/1 15/45/1 20/42/1
f 6/10/4 57/46/4 14/47/4
f 4/35/4 60/48/4 18/33/4
f 17/49/3 42/50/3 37/51/3
f 8/12/4 55/52/4 6/10/4
f 13/53/4 57/46/4 61/54/4
f 31/55/2 42/56/2 41/57/2
f 18/33/4 29/58/4 17/31/4
f 25/59/5 41/60/5 36/61/5
f 26/62/1 31/63/1 25/64/1
f 36/65/5 30/66/5 18/67/5
f 41/68/9 44/69/9 30/70/9
f 26/71/10 64/72/10 37/19/10
f 2/73/4 61/54/4 58/74/4
f 36/24/8 65/75/8 25/76/8
f 37/77/11 32/78/11 26/79/11
f 2/73/4 59/80/4 4/35/4
f 45/81/2 43/82/2 44/83/2
f 42/84/1 45/85/1 41/86/1
f 29/87/3 46/88/3 42/89/3
f 29/58/4 44/90/4 43/91/4
f 53/92/2 75/93/2 23/94/2
f 49/38/2 23/95/2 11/96/2
f 51/28/6 22/97/6 21/98/6
f 50/29/6 21/98/6 12/99/6
f 52/18/6 9/100/6 22/97/6
f 48/15/5 11/101/5 9/102/5
f 47/9/3 12/103/3 10/104/3
f 130/105/2 106/106/2 112/107/2
f 91/108/6 68/109/6 73/110/6
f 82/111/5 71/112/5 81/113/5
f 4/35/4 33/114/4 2/73/4
f 13/53/4 33/114/4 28/115/4
f 17/31/4 35/116/4 18/33/4
f 14/47/4 40/117/4 6/10/4
f 14/47/4 28/115/4 38/118/4
f 72/119/4 68/109/4 67/120/4
f 69/121/4 71/112/4 74/122/4
f 67/120/4 70/123/4 69/121/4
f 85/124/2 67/120/2 86/125/2
f 87/126/2 74/122/2 82/111/2
f 83/127/3 72/119/3 85/124/3
f 81/113/6 111/128/6 117/129/6
f 86/125/2 69/121/2 87/126/2
f 79/130/2 101/131/2 80/132/2
f 77/133/2 92/134/2 75/93/2
f 26/71/2 76/135/2 24/136/2
f 25/76/2 80/132/2 26/71/2
f 24/136/2 78/137/2 54/138/2
f 23/94/2 79/130/2 25/76/2
f 28/115/2 87/126/2 38/118/2
f 39/11/6 84/139/6 27/32/6
f 34/34/3 85/124/3 33/114/3
f 38/118/2 82/111/2 40/117/2
f 33/114/2 86/125/2 28/115/2
f 40/117/5 81/113/5 39/11/5
f 89/140/6 88/141/6 83/127/6
f 84/139/6 102/142/6 103/143/6
f 99/144/6 84/139/6 70/123/6
f 96/145/4 99/146/4 104/147/4
f 94/148/3 91/149/3 92/150/3
f 98/151/2 76/135/2 100/152/2
f 98/153/5 100/154/5 99/155/5
f 90/156/1 89/157/1 105/158/1
f 112/159/3 107/160/3 113/161/3
f 113/162/6 131/163/6 84/139/6
f 117/164/5 110/165/5 116/166/5
f 117/167/1 114/168/1 115/169/1
f 108/170/2 121/171/2 47/5/2
f 107/160/12 108/172/12 109/173/12
f 114/168/1 113/161/1 115/169/1
f 108/172/13 111/174/13 109/173/13
f 130/175/1 129/176/1 131/177/1
f 71/112/6 70/123/6 122/178/6
f 125/179/13 123/180/13 124/181/13
f 120/182/12 121/183/12 122/184/12
f 126/185/3 119/186/3 127/187/3
f 131/188/5 123/189/5 130/190/5
f 128/191/1 127/187/1 129/176/1
f 5/1/1 7/192/1 16/2/1
f 16/4/2 7/193/2 47/5/2
f 7/7/3 5/194/3 50/8/3
f 6/10/4 40/117/4 39/11/4
f 1/13/5 3/195/5 49/14/5
f 20/16/6 1/196/6 48/17/6
f 37/19/7 64/72/7 62/20/7
f 18/22/8 60/197/8 63/23/8
f 8/12/4 17/31/4 62/25/4
f 5/27/6 19/30/6 51/28/6
f 19/30/6 20/16/6 52/18/6
f 17/31/4 8/12/4 39/11/4
f 18/33/4 35/116/4 34/34/4
f 3/36/2 15/41/2 53/37/2
f 94/198/2 53/37/2 93/40/2
f 53/37/2 15/41/2 93/40/2
f 16/4/2 54/6/2 96/39/2
f 54/6/2 97/199/2 96/39/2
f 16/4/2 96/39/2 15/41/2
f 20/42/1 15/45/1 3/43/1
f 19/3/1 16/2/1 15/45/1
f 6/10/4 55/52/4 57/46/4
f 4/35/4 59/80/4 60/48/4
f 17/49/3 29/200/3 42/50/3
f 8/12/4 56/26/4 55/52/4
f 13/53/4 14/47/4 57/46/4
f 31/55/2 32/201/2 42/56/2
f 18/33/4 30/202/4 29/58/4
f 25/59/5 31/203/5 41/60/5
f 26/62/1 32/204/1 31/63/1
f 36/65/5 41/205/5 30/66/5
f 41/68/9 45/206/9 44/69/9
f 26/71/14 66/207/14 64/72/14
f 2/73/4 13/53/4 61/54/4
f 36/24/8 63/23/8 65/75/8
f 37/77/3 42/208/3 32/78/3
f 2/73/4 58/74/4 59/80/4
f 45/81/2 46/209/2 43/82/2
f 42/84/1 46/210/1 45/85/1
f 29/87/3 43/211/3 46/88/3
f 29/58/4 30/202/4 44/90/4
f 53/92/2 77/133/2 75/93/2
f 49/38/2 53/37/2 23/95/2
f 51/28/6 52/18/6 22/97/6
f 50/29/6 51/28/6 21/98/6
f 52/18/6 48/17/6 9/100/6
f 48/15/5 49/14/5 11/101/5
f 47/9/3 50/8/3 12/103/3
f 54/6/2 120/212/2 118/213/2
f 126/214/2 128/215/2 24/216/2
f 128/215/2 130/105/2 24/216/2
f 54/6/2 118/213/2 24/216/2
f 118/213/2 126/214/2 24/216/2
f 116/217/2 10/218/2 114/219/2
f 10/218/2 24/216/2 130/105/2
f 114/219/2 10/218/2 112/107/2
f 112/107/2 10/218/2 130/105/2
f 123/220/2 125/221/2 106/106/2
f 130/105/2 123/220/2 106/106/2
f 73/110/6 83/127/6 91/108/6
f 83/127/6 88/141/6 91/108/6
f 91/108/6 104/222/6 68/109/6
f 82/111/5 74/122/5 71/112/5
f 4/35/4 34/34/4 33/114/4
f 13/53/4 2/73/4 33/114/4
f 17/31/4 27/32/4 35/116/4
f 14/47/4 38/118/4 40/117/4
f 14/47/4 13/53/4 28/115/4
f 72/119/4 73/110/4 68/109/4
f 69/121/4 70/123/4 71/112/4
f 67/120/4 68/109/4 70/123/4
f 85/124/2 72/119/2 67/120/2
f 87/126/2 69/121/2 74/122/2
f 83/127/3 73/110/3 72/119/3
f 113/162/6 84/139/6 81/113/6
f 81/113/6 71/112/6 111/128/6
f 117/129/6 115/223/6 81/113/6
f 115/223/6 113/162/6 81/113/6
f 86/125/2 67/120/2 69/121/2
f 79/130/2 75/93/2 90/224/2
f 75/93/2 92/134/2 90/224/2
f 100/152/2 76/135/2 101/131/2
f 76/135/2 80/132/2 101/131/2
f 79/130/2 90/224/2 101/131/2
f 77/133/2 95/225/2 92/134/2
f 26/71/2 80/132/2 76/135/2
f 25/76/2 79/130/2 80/132/2
f 24/136/2 76/135/2 78/137/2
f 23/94/2 75/93/2 79/130/2
f 28/115/2 86/125/2 87/126/2
f 39/11/6 81/113/6 84/139/6
f 34/34/3 83/127/3 85/124/3
f 38/118/2 87/126/2 82/111/2
f 33/114/2 85/124/2 86/125/2
f 40/117/5 82/111/5 81/113/5
f 83/127/6 34/34/6 89/140/6
f 34/34/6 35/116/6 89/140/6
f 35/116/6 105/226/6 89/140/6
f 105/226/6 35/116/6 103/143/6
f 35/116/6 27/32/6 103/143/6
f 27/32/6 84/139/6 103/143/6
f 68/109/6 104/222/6 99/144/6
f 99/144/6 102/142/6 84/139/6
f 70/123/6 68/109/6 99/144/6
f 104/147/4 91/149/4 93/227/4
f 93/227/4 96/145/4 104/147/4
f 88/228/3 89/157/3 90/156/3
f 92/150/2 95/229/2 94/148/2
f 88/228/3 90/156/3 92/150/3
f 93/227/3 91/149/3 94/148/3
f 91/149/3 88/228/3 92/150/3
f 98/151/2 78/137/2 76/135/2
f 100/154/5 101/230/5 102/231/5
f 101/230/5 103/232/5 102/231/5
f 102/231/5 99/155/5 100/154/5
f 99/155/5 96/233/5 98/153/5
f 96/233/2 97/234/2 98/153/2
f 105/158/1 103/235/1 101/236/1
f 101/236/1 90/156/1 105/158/1
f 112/159/3 106/237/3 107/160/3
f 113/162/6 107/238/6 124/239/6
f 131/163/6 129/240/6 84/139/6
f 129/240/6 127/241/6 84/139/6
f 113/162/6 124/239/6 131/163/6
f 117/164/5 111/242/5 110/165/5
f 117/167/1 116/243/1 114/168/1
f 47/5/2 10/218/2 110/244/2
f 10/218/2 116/217/2 110/244/2
f 121/171/2 120/212/2 54/6/2
f 106/106/2 125/221/2 108/170/2
f 125/221/2 121/171/2 108/170/2
f 47/5/2 110/244/2 108/170/2
f 121/171/2 54/6/2 47/5/2
f 107/160/12 106/237/12 108/172/12
f 114/168/1 112/159/1 113/161/1
f 108/172/13 110/245/13 111/174/13
f 130/175/1 128/191/1 129/176/1
f 70/123/6 84/139/6 119/246/6
f 84/139/6 127/241/6 119/246/6
f 109/247/6 111/128/6 71/112/6
f 124/239/6 107/238/6 71/112/6
f 107/238/6 109/247/6 71/112/6
f 70/123/6 119/246/6 122/178/6
f 122/178/6 124/239/6 71/112/6
f 124/181/13 122/184/13 125/179/13
f 122/184/13 121/183/13 125/179/13
f 122/184/12 119/186/12 120/182/12
f 119/186/12 118/248/12 120/182/12
f 126/185/3 118/248/3 119/186/3
f 131/188/5 124/249/5 123/189/5
f 128/191/1 126/185/1 127/187/1
