# Blender v2.82 (sub 7) OBJ File: 'barrel_scene.blend'
# www.blender.org
mtllib walls.mtl
o Cube.003
v -9.999999 0.561324 -9.939087
v -9.999999 20.561325 -9.939086
v -9.999999 0.561324 -8.863142
v 9.999999 0.561324 -9.939087
v 9.999999 20.561325 -9.939086
v 9.999999 0.561324 -8.863142
v 9.999999 20.561325 -8.863142
v -9.999999 20.561325 -8.863142
v -10.041538 0.561324 9.940592
v -10.041537 20.561325 9.940592
v -8.965595 0.561324 9.940592
v -10.041538 0.561324 -10.059405
v -10.041538 20.561325 -10.059405
v -8.965595 0.561324 -10.059405
v -8.965595 20.561325 -10.059405
v -8.965593 20.561325 9.940592
vt 1.315265 -2.761061
vt -0.315265 -1.130531
vt -0.315265 -2.761061
vt -0.315265 0.500000
vt -1.945796 2.130531
vt -1.945796 0.500000
vt 1.315265 2.130531
vt 1.315265 3.761061
vt -0.315265 3.761061
vt -0.315265 2.130531
vt 1.315265 0.500000
vt 2.945796 0.500000
vt 2.945796 2.130531
vt 1.315265 -1.130531
vt -0.315265 0.500000
vt -1.945796 2.130531
vt -1.945796 0.500000
vt 1.315265 -2.761061
vt -0.315265 -1.130531
vt -0.315265 -2.761061
vt 1.315265 2.130531
vt -0.315265 3.761061
vt -0.315265 2.130531
vt 1.315265 0.500000
vt 2.945796 0.500000
vt 1.315265 -1.130531
vt 1.315265 3.761061
vt 2.945796 2.130531
vn -1.0000 0.0000 0.0000
vn 0.0000 0.0000 -1.0000
vn 0.0000 -1.0000 0.0000
vn 1.0000 0.0000 0.0000
vn 0.0000 0.0000 1.0000
vn 0.0000 1.0000 0.0000
usemtl Material.001
s off
f 3/1/1 2/2/1 1/3/1
f 5/4/2 1/5/2 2/6/2
f 6/7/3 3/8/3 1/9/3
f 5/4/2 4/10/2 1/5/2
f 6/7/3 1/9/3 4/10/3
f 7/11/4 6/7/4 4/10/4
f 8/12/5 6/7/5 7/11/5
f 8/12/5 3/13/5 6/7/5
f 8/14/6 7/11/6 5/4/6
f 3/1/1 8/14/1 2/2/1
f 8/14/6 5/4/6 2/2/6
f 7/11/4 4/10/4 5/4/4
f 13/15/1 9/16/1 10/17/1
f 11/18/5 10/19/5 9/20/5
f 14/21/3 9/22/3 12/23/3
f 15/24/2 12/23/2 13/15/2
f 16/25/4 14/21/4 15/24/4
f 16/26/6 13/15/6 10/19/6
f 13/15/1 12/23/1 9/16/1
f 11/18/5 16/26/5 10/19/5
f 14/21/3 11/27/3 9/22/3
f 15/24/2 14/21/2 12/23/2
f 16/25/4 11/28/4 14/21/4
f 16/26/6 15/24/6 13/15/6
