# Blender v2.83.0 OBJ File: 'well.blend'
# www.blender.org
mtllib well_roof.mtl
o Cube.001_Cube.002
v -1.000000 2.484696 1.000000
v -1.000000 2.641909 1.000000
v -1.000000 2.484696 -1.000000
v -1.000000 2.641909 -1.000000
v 1.000000 2.484696 1.000000
v 1.000000 2.641909 1.000000
v 1.000000 2.484696 -1.000000
v 1.000000 2.641909 -1.000000
v 0.000000 3.142497 -1.000000
v 0.000000 3.299710 -1.000000
v 0.000000 3.142497 1.000000
v 0.000000 3.299710 1.000000
vt 0.990349 0.703634
vt 0.495390 0.664727
vt 0.990349 0.664727
vt 0.310650 0.036775
vt 0.576860 0.092696
vt 0.585076 0.122397
vt 0.495103 0.703634
vt 0.000144 0.664727
vt 0.495103 0.664727
vt 0.274570 0.627809
vt 0.008360 0.571888
vt 0.000144 0.542186
vt 0.082715 0.039825
vt 0.588127 0.350332
vt -0.002907 0.314251
vt 0.495390 0.703634
vt 0.990349 0.999856
vt 0.495390 0.999856
vt 0.495103 0.999856
vt 0.000144 0.703634
vt 0.502505 0.624758
vt 0.087769 0.624758
vt 0.574686 0.570747
vt 0.585076 0.537133
vt 0.010535 0.093837
vt 0.000144 0.127450
vt 0.310651 0.000144
vt 0.274569 0.664439
vt 0.497452 0.039825
vt 0.000144 0.999856
vn -1.0000 0.0000 0.0000
vn 0.0000 0.0000 -1.0000
vn 1.0000 0.0000 0.0000
vn 0.0000 0.0000 1.0000
vn -0.5496 -0.8355 0.0000
vn -0.5496 0.8355 0.0000
vn 0.5496 0.8355 0.0000
vn 0.5496 -0.8355 0.0000
usemtl Material.001
s off
f 2/1/1 3/2/1 1/3/1
f 9/4/2 8/5/2 7/6/2
f 8/7/3 5/8/3 7/9/3
f 11/10/4 2/11/4 1/12/4
f 7/13/5 11/14/5 9/15/5
f 4/16/6 12/17/6 10/18/6
f 10/19/7 6/20/7 8/7/7
f 9/15/8 1/21/8 3/22/8
f 6/23/4 11/10/4 5/24/4
f 4/25/2 9/4/2 3/26/2
f 2/1/1 4/16/1 3/2/1
f 9/4/2 10/27/2 8/5/2
f 8/7/3 6/20/3 5/8/3
f 11/10/4 12/28/4 2/11/4
f 7/13/5 5/29/5 11/14/5
f 4/16/6 2/1/6 12/17/6
f 10/19/7 12/30/7 6/20/7
f 9/15/8 11/14/8 1/21/8
f 6/23/4 12/28/4 11/10/4
f 4/25/2 10/27/2 9/4/2
