# Blender v2.83.0 OBJ File: 'well.blend'
# www.blender.org
mtllib well_beams.mtl
o Cube_Cube.001
v -0.114118 1.522543 0.970351
v -0.114118 3.183962 0.970351
v -0.114118 1.522543 0.742115
v -0.114118 3.183962 0.742115
v 0.114118 1.522543 0.970351
v 0.114118 3.183962 0.970351
v 0.114118 1.522543 0.742115
v 0.114118 3.183962 0.742115
v -0.114118 1.522543 -0.970351
v -0.114118 3.183962 -0.970351
v -0.114118 1.522543 -0.742115
v -0.114118 3.183962 -0.742115
v 0.114118 1.522543 -0.970351
v 0.114118 3.183962 -0.970351
v 0.114118 1.522543 -0.742115
v 0.114118 3.183962 -0.742115
vt 0.237124 0.005325
vt 0.486619 1.821498
vt 0.237123 1.821498
vt 0.986688 1.821498
vt 0.737192 0.005325
vt 0.986688 0.005325
vt -0.012911 0.005325
vt 0.236584 1.821498
vt -0.012912 1.821498
vt 0.736654 1.821498
vt 0.487158 0.005325
vt 0.736654 0.005325
vt 0.375000 0.500000
vt 0.125000 0.750000
vt 0.125000 0.500000
vt 0.875000 0.500000
vt 0.625000 0.750000
vt 0.625000 0.500000
vt 0.486619 1.821498
vt 0.237124 0.005325
vt 0.237123 1.821498
vt 0.737192 0.005325
vt 0.986688 1.821498
vt 0.986688 0.005325
vt 0.236584 1.821498
vt -0.012911 0.005325
vt -0.012912 1.821498
vt 0.487158 0.005325
vt 0.736654 1.821498
vt 0.736654 0.005325
vt 0.125000 0.750000
vt 0.375000 0.500000
vt 0.125000 0.500000
vt 0.625000 0.750000
vt 0.875000 0.500000
vt 0.625000 0.500000
vt 0.486619 0.005325
vt 0.737193 1.821498
vt 0.236584 0.005325
vt 0.487159 1.821498
vt 0.375000 0.750000
vt 0.875000 0.750000
vt 0.486619 0.005325
vt 0.737193 1.821498
vt 0.236584 0.005325
vt 0.487159 1.821498
vt 0.375000 0.750000
vt 0.875000 0.750000
vn -1.0000 0.0000 0.0000
vn 0.0000 0.0000 -1.0000
vn 1.0000 0.0000 0.0000
vn 0.0000 0.0000 1.0000
vn 0.0000 -1.0000 0.0000
vn 0.0000 1.0000 0.0000
usemtl Material.002
s off
f 2/1/1 3/2/1 1/3/1
f 4/4/2 7/5/2 3/6/2
f 8/7/3 5/8/3 7/9/3
f 6/10/4 1/11/4 5/12/4
f 7/13/5 1/14/5 3/15/5
f 4/16/6 6/17/6 8/18/6
f 11/19/1 10/20/1 9/21/1
f 15/22/4 12/23/4 11/24/4
f 13/25/3 16/26/3 15/27/3
f 9/28/2 14/29/2 13/30/2
f 9/31/5 15/32/5 11/33/5
f 14/34/6 12/35/6 16/36/6
f 2/1/1 4/37/1 3/2/1
f 4/4/2 8/38/2 7/5/2
f 8/7/3 6/39/3 5/8/3
f 6/10/4 2/40/4 1/11/4
f 7/13/5 5/41/5 1/14/5
f 4/16/6 2/42/6 6/17/6
f 11/19/1 12/43/1 10/20/1
f 15/22/4 16/44/4 12/23/4
f 13/25/3 14/45/3 16/26/3
f 9/28/2 10/46/2 14/29/2
f 9/31/5 13/47/5 15/32/5
f 14/34/6 10/48/6 12/35/6
